<svg width="13" height="12" viewBox="0 0 13 12" fill="none" xmlns="http://www.w3.org/2000/svg">
<path d="M5.756 2.492L4.892 0.908001C2.444 2.024 0.176 4.508 0.176 7.856C0.176 9.944 1.508 11.492 3.164 11.492C4.856 11.492 5.756 10.268 5.756 9.008C5.756 7.64 4.82 6.56 3.416 6.56C3.056 6.56 2.696 6.668 2.516 6.812C2.516 5.408 3.704 3.5 5.756 2.492ZM12.848 2.492L11.984 0.908001C9.536 2.024 7.268 4.508 7.268 7.856C7.268 9.944 8.6 11.492 10.256 11.492C11.948 11.492 12.848 10.268 12.848 9.008C12.848 7.64 11.912 6.56 10.508 6.56C10.112 6.56 9.788 6.668 9.608 6.812C9.608 5.408 10.796 3.5 12.848 2.492Z" fill="#3A5DAE"/>
</svg>
