<svg width="13" height="12" viewBox="0 0 13 12" fill="none" xmlns="http://www.w3.org/2000/svg">
<path d="M7.244 9.508L8.108 11.092C10.556 9.976 12.824 7.492 12.824 4.144C12.824 2.056 11.492 0.507998 9.836 0.507998C8.144 0.507998 7.244 1.732 7.244 2.992C7.244 4.36 8.18 5.44 9.584 5.44C9.944 5.44 10.304 5.332 10.484 5.188C10.484 6.592 9.296 8.5 7.244 9.508ZM0.152 9.508L1.016 11.092C3.464 9.976 5.732 7.492 5.732 4.144C5.732 2.056 4.4 0.507998 2.744 0.507998C1.052 0.507998 0.152 1.732 0.152 2.992C0.152 4.36 1.088 5.44 2.492 5.44C2.888 5.44 3.212 5.332 3.392 5.188C3.392 6.592 2.204 8.5 0.152 9.508Z" fill="#3A5DAE"/>
</svg>
