<svg width="115" height="34" viewBox="0 0 115 34" fill="none" xmlns="http://www.w3.org/2000/svg">
<g clip-path="url(#clip0_1367_62938)">
<path d="M110.909 34H4.02841C1.80763 34 0 32.1912 0 29.9769V4.0171C0 1.802 1.80763 0 4.02841 0H110.909C113.128 0 115 1.802 115 4.0171V29.9769C115 32.1912 113.128 34 110.909 34Z" fill="#A6A6A6"/>
<path d="M114.175 29.9776C114.175 31.7762 112.715 33.2331 110.909 33.2331H4.02832C2.22324 33.2331 0.758057 31.7762 0.758057 29.9776V4.0161C0.758057 2.21835 2.22324 0.756348 4.02832 0.756348H110.908C112.715 0.756348 114.174 2.21835 114.174 4.0161L114.175 29.9776Z" fill="black"/>
<path d="M25.6645 16.8168C25.6398 14.0772 27.9125 12.7444 28.0165 12.6824C26.7293 10.8098 24.7343 10.554 24.0332 10.5336C22.3576 10.3576 20.7323 11.534 19.8787 11.534C19.0081 11.534 17.6937 10.5506 16.2771 10.5795C14.4541 10.6075 12.7487 11.6607 11.8134 13.2961C9.88311 16.6306 11.3227 21.5309 13.1721 24.2262C14.0972 25.5463 15.1782 27.0202 16.5931 26.9683C17.9774 26.9114 18.4945 26.0877 20.165 26.0877C21.8201 26.0877 22.3057 26.9683 23.7487 26.9352C25.2343 26.9114 26.1697 25.6092 27.0624 24.2772C28.1315 22.7642 28.5608 21.2742 28.5778 21.1977C28.5429 21.1858 25.6926 20.1003 25.6645 16.8168Z" fill="white"/>
<path d="M22.9385 8.76032C23.6831 7.83127 24.1925 6.56732 24.0511 5.28467C22.9735 5.33227 21.6258 6.02842 20.8498 6.93707C20.1632 7.73777 19.5499 9.05017 19.7083 10.2844C20.9188 10.3745 22.1616 9.67492 22.9385 8.76032Z" fill="white"/>
<path d="M45.6975 26.7781H43.763L42.7033 23.4555H39.0198L38.0104 26.7781H36.127L39.7763 15.4663H42.0303L45.6975 26.7781ZM42.3838 22.0615L41.4255 19.1077C41.3241 18.806 41.1341 18.0954 40.8539 16.9768H40.8198C40.7082 17.4579 40.5285 18.1685 40.2814 19.1077L39.3401 22.0615H42.3838Z" fill="white"/>
<path d="M55.0824 22.5996C55.0824 23.9868 54.7067 25.0833 53.9554 25.8882C53.2824 26.6048 52.4468 26.9626 51.4493 26.9626C50.3725 26.9626 49.599 26.5767 49.128 25.8049H49.0939V30.1017H47.2777V21.3067C47.2777 20.4346 47.2547 19.5396 47.2104 18.6216H48.8077L48.909 19.9144H48.9431C49.5488 18.9403 50.4679 18.4541 51.7014 18.4541C52.6657 18.4541 53.4707 18.8341 54.1147 19.5948C54.7604 20.3564 55.0824 21.3577 55.0824 22.5996ZM53.2322 22.6659C53.2322 21.872 53.0533 21.2175 52.6938 20.7024C52.3011 20.1652 51.7738 19.8966 51.1128 19.8966C50.6647 19.8966 50.2575 20.0462 49.8938 20.3411C49.5292 20.6386 49.2907 21.0271 49.1791 21.5082C49.1229 21.7326 49.0947 21.9162 49.0947 22.0607V23.4207C49.0947 24.014 49.277 24.5146 49.6416 24.9235C50.0062 25.3323 50.4799 25.5363 51.0625 25.5363C51.7466 25.5363 52.279 25.2728 52.6597 24.7475C53.0414 24.2214 53.2322 23.5278 53.2322 22.6659Z" fill="white"/>
<path d="M64.4841 22.5996C64.4841 23.9868 64.1085 25.0833 63.3563 25.8882C62.6842 26.6048 61.8485 26.9626 60.851 26.9626C59.7743 26.9626 59.0008 26.5767 58.5306 25.8049H58.4965V30.1017H56.6803V21.3067C56.6803 20.4346 56.6573 19.5396 56.613 18.6216H58.2103L58.3116 19.9144H58.3457C58.9505 18.9403 59.8697 18.4541 61.104 18.4541C62.0674 18.4541 62.8724 18.8341 63.5182 19.5948C64.1613 20.3564 64.4841 21.3577 64.4841 22.5996ZM62.6339 22.6659C62.6339 21.872 62.4542 21.2175 62.0947 20.7024C61.702 20.1652 61.1764 19.8966 60.5145 19.8966C60.0656 19.8966 59.6593 20.0462 59.2947 20.3411C58.9301 20.6386 58.6924 21.0271 58.5808 21.5082C58.5254 21.7326 58.4965 21.9162 58.4965 22.0607V23.4207C58.4965 24.014 58.6788 24.5146 59.0417 24.9235C59.4063 25.3315 59.8799 25.5363 60.4643 25.5363C61.1483 25.5363 61.6807 25.2728 62.0615 24.7475C62.4431 24.2214 62.6339 23.5278 62.6339 22.6659Z" fill="white"/>
<path d="M74.996 23.6061C74.996 24.5683 74.6613 25.3512 73.9891 25.9555C73.2506 26.616 72.2224 26.9458 70.9012 26.9458C69.6813 26.9458 68.7034 26.7112 67.9631 26.2411L68.384 24.7307C69.1813 25.2118 70.0561 25.4532 71.0094 25.4532C71.6934 25.4532 72.2258 25.2985 72.6083 24.9908C72.9891 24.6831 73.179 24.27 73.179 23.7549C73.179 23.2959 73.0223 22.9091 72.7079 22.5955C72.3953 22.2818 71.8731 21.9903 71.144 21.7208C69.1591 20.9822 68.1676 19.9001 68.1676 18.4772C68.1676 17.5473 68.5151 16.7849 69.2111 16.1916C69.9045 15.5974 70.8296 15.3008 71.9864 15.3008C73.018 15.3008 73.875 15.4801 74.559 15.838L74.105 17.3153C73.4661 16.9685 72.7437 16.7951 71.9353 16.7951C71.2964 16.7951 70.7973 16.9523 70.4395 17.2651C70.1371 17.5448 69.9854 17.8856 69.9854 18.2894C69.9854 18.7365 70.1584 19.1062 70.5059 19.3969C70.8083 19.6655 71.3578 19.9562 72.1551 20.2699C73.1305 20.6617 73.8469 21.1199 74.3077 21.6452C74.7669 22.1688 74.996 22.8241 74.996 23.6061Z" fill="white"/>
<path d="M81.0009 19.9817H78.9991V23.9419C78.9991 24.9491 79.3517 25.4523 80.0588 25.4523C80.3833 25.4523 80.6525 25.4243 80.8655 25.3682L80.9157 26.7443C80.558 26.8778 80.0869 26.9449 79.5034 26.9449C78.7861 26.9449 78.2256 26.7265 77.821 26.2904C77.418 25.8535 77.2153 25.1208 77.2153 24.0915V19.98H76.0227V18.62H77.2153V17.1266L78.9991 16.5894V18.62H81.0009V19.9817Z" fill="white"/>
<path d="M90.0329 22.6328C90.0329 23.8866 89.6734 24.9159 88.9562 25.7209C88.204 26.5496 87.2056 26.9627 85.9611 26.9627C84.7617 26.9627 83.8067 26.5658 83.0946 25.7719C82.3824 24.978 82.0264 23.9758 82.0264 22.768C82.0264 21.504 82.3927 20.4687 83.1278 19.6638C83.8613 18.858 84.8511 18.4551 86.0957 18.4551C87.2951 18.4551 88.2602 18.852 88.9885 19.6468C89.6854 20.4177 90.0329 21.4131 90.0329 22.6328ZM88.1486 22.6915C88.1486 21.9392 87.9876 21.2941 87.6614 20.756C87.2806 20.1049 86.7363 19.7802 86.0309 19.7802C85.3009 19.7802 84.7463 20.1058 84.3656 20.756C84.0393 21.2949 83.8783 21.9503 83.8783 22.7255C83.8783 23.4777 84.0393 24.1229 84.3656 24.6601C84.7583 25.3112 85.3068 25.6359 86.0147 25.6359C86.7081 25.6359 87.2525 25.3044 87.6452 24.6431C87.98 24.0948 88.1486 23.4429 88.1486 22.6915Z" fill="white"/>
<path d="M95.9364 20.2153C95.7567 20.1822 95.565 20.1652 95.3639 20.1652C94.7251 20.1652 94.231 20.4057 93.8834 20.8877C93.581 21.3127 93.4294 21.8499 93.4294 22.4984V26.7782H91.6141L91.6311 21.1903C91.6311 20.2502 91.6081 19.3942 91.563 18.6224H93.1449L93.2113 20.183H93.2616C93.4533 19.6467 93.7557 19.2149 94.1697 18.891C94.5743 18.5995 95.0113 18.4541 95.4824 18.4541C95.6502 18.4541 95.8018 18.466 95.9364 18.4873V20.2153Z" fill="white"/>
<path d="M104.059 22.3141C104.059 22.6388 104.037 22.9125 103.992 23.1361H98.5439C98.5652 23.9419 98.8284 24.5581 99.3344 24.9831C99.7936 25.3631 100.387 25.5535 101.116 25.5535C101.923 25.5535 102.659 25.4251 103.321 25.1676L103.606 26.4256C102.832 26.7622 101.919 26.9296 100.865 26.9296C99.5976 26.9296 98.6027 26.5573 97.8786 25.8136C97.1562 25.0698 96.7942 24.0711 96.7942 22.8182C96.7942 21.5882 97.1307 20.564 97.8045 19.7471C98.5098 18.875 99.463 18.439 100.662 18.439C101.841 18.439 102.732 18.875 103.338 19.7471C103.818 20.4399 104.059 21.2967 104.059 22.3141ZM102.327 21.8441C102.339 21.3069 102.22 20.8428 101.974 20.4509C101.66 19.9469 101.177 19.6953 100.527 19.6953C99.9333 19.6953 99.4503 19.9409 99.0814 20.4339C98.779 20.8258 98.5993 21.2958 98.5439 21.8432H102.327V21.8441Z" fill="white"/>
<path d="M41.7834 8.50789C41.7834 9.50834 41.4827 10.2614 40.8822 10.7672C40.3259 11.2338 39.5354 11.4676 38.5115 11.4676C38.0038 11.4676 37.5693 11.4455 37.2056 11.4013V5.93494C37.68 5.85844 38.1912 5.81934 38.7432 5.81934C39.7185 5.81934 40.4537 6.03099 40.9495 6.45429C41.5049 6.93284 41.7834 7.61709 41.7834 8.50789ZM40.8421 8.53254C40.8421 7.88399 40.67 7.38674 40.3259 7.03994C39.9818 6.69399 39.4792 6.52059 38.8173 6.52059C38.5362 6.52059 38.2968 6.53929 38.0983 6.57839V10.734C38.2082 10.751 38.4092 10.7587 38.7014 10.7587C39.3846 10.7587 39.9119 10.5691 40.2833 10.19C40.6547 9.81094 40.8421 9.25844 40.8421 8.53254Z" fill="white"/>
<path d="M46.7743 9.38149C46.7743 9.99774 46.598 10.5026 46.2453 10.8987C45.8756 11.3059 45.3858 11.509 44.7742 11.509C44.1847 11.509 43.7153 11.3144 43.3652 10.9234C43.0159 10.5332 42.8413 10.0411 42.8413 9.44779C42.8413 8.82729 43.021 8.31814 43.3822 7.92289C43.7434 7.52764 44.229 7.32959 44.8406 7.32959C45.4301 7.32959 45.9037 7.52424 46.2623 7.91439C46.6031 8.29349 46.7743 8.78309 46.7743 9.38149ZM45.8483 9.41039C45.8483 9.04064 45.7683 8.72359 45.609 8.45924C45.4216 8.13964 45.1549 7.97984 44.8082 7.97984C44.4496 7.97984 44.177 8.13964 43.9896 8.45924C43.8295 8.72359 43.7502 9.04574 43.7502 9.42654C43.7502 9.79629 43.8303 10.1133 43.9896 10.3777C44.183 10.6973 44.4522 10.8571 44.7997 10.8571C45.1405 10.8571 45.4079 10.6947 45.6005 10.3692C45.7657 10.0997 45.8483 9.78014 45.8483 9.41039Z" fill="white"/>
<path d="M53.4666 7.41113L52.2101 11.418H51.3923L50.8718 9.67808C50.7398 9.24373 50.6325 8.81193 50.549 8.38353H50.5328C50.4553 8.82383 50.348 9.25478 50.21 9.67808L49.6571 11.418H48.83L47.6484 7.41113H48.5659L49.0199 9.31598C49.1298 9.76648 49.2201 10.1957 49.2925 10.602H49.3087C49.3751 10.2671 49.485 9.84043 49.6401 9.32448L50.21 7.41198H50.9374L51.4835 9.28368C51.6155 9.74013 51.7228 10.1796 51.8055 10.6029H51.8302C51.8907 10.1906 51.9818 9.75118 52.1028 9.28368L52.59 7.41198H53.4666V7.41113Z" fill="white"/>
<path d="M58.0948 11.4182H57.2021V9.1232C57.2021 8.416 56.9329 8.0624 56.3928 8.0624C56.1279 8.0624 55.9141 8.1593 55.748 8.35395C55.5835 8.5486 55.5001 8.7781 55.5001 9.04075V11.4173H54.6073V8.55625C54.6073 8.20435 54.5962 7.8227 54.575 7.4096H55.3595L55.4012 8.03605H55.426C55.5299 7.8414 55.6849 7.68075 55.8885 7.5524C56.1304 7.4028 56.4013 7.32715 56.6978 7.32715C57.0726 7.32715 57.3844 7.44785 57.6322 7.6901C57.9406 7.98675 58.0948 8.4296 58.0948 9.0178V11.4182Z" fill="white"/>
<path d="M60.5564 11.4182H59.6646V5.57275H60.5564V11.4182Z" fill="white"/>
<path d="M65.8124 9.38149C65.8124 9.99774 65.6361 10.5026 65.2834 10.8987C64.9137 11.3059 64.423 11.509 63.8123 11.509C63.2219 11.509 62.7525 11.3144 62.4033 10.9234C62.054 10.5332 61.8794 10.0411 61.8794 9.44779C61.8794 8.82729 62.0591 8.31814 62.4203 7.92289C62.7815 7.52764 63.2671 7.32959 63.8778 7.32959C64.4682 7.32959 64.9409 7.52424 65.3004 7.91439C65.6412 8.29349 65.8124 8.78309 65.8124 9.38149ZM64.8856 9.41039C64.8856 9.04064 64.8055 8.72359 64.6462 8.45924C64.4597 8.13964 64.1922 7.97984 63.8463 7.97984C63.4868 7.97984 63.2142 8.13964 63.0277 8.45924C62.8675 8.72359 62.7883 9.04574 62.7883 9.42654C62.7883 9.79629 62.8684 10.1133 63.0277 10.3777C63.2211 10.6973 63.4902 10.8571 63.8378 10.8571C64.1785 10.8571 64.4452 10.6947 64.6377 10.3692C64.8038 10.0997 64.8856 9.78014 64.8856 9.41039Z" fill="white"/>
<path d="M70.1331 11.4181H69.3315L69.2651 10.9565H69.2404C68.9661 11.3246 68.5751 11.509 68.0674 11.509C67.6883 11.509 67.3816 11.3875 67.1508 11.1461C66.9412 10.9268 66.8364 10.6539 66.8364 10.3301C66.8364 9.84049 67.0409 9.46734 67.4523 9.20894C67.8629 8.95054 68.4405 8.82389 69.1841 8.82984V8.75504C69.1841 8.22719 68.9064 7.96369 68.3502 7.96369C67.9541 7.96369 67.6048 8.06314 67.3032 8.26034L67.1218 7.67554C67.4949 7.44519 67.9558 7.32959 68.4992 7.32959C69.5487 7.32959 70.0752 7.88209 70.0752 8.98709V10.4627C70.0752 10.863 70.0948 11.1818 70.1331 11.4181ZM69.2063 10.0411V9.42314C68.2215 9.40614 67.7292 9.67559 67.7292 10.2306C67.7292 10.4397 67.7854 10.5961 67.9004 10.7007C68.0154 10.8052 68.1619 10.8571 68.3365 10.8571C68.5325 10.8571 68.7156 10.795 68.8826 10.6718C69.0504 10.5477 69.1535 10.3904 69.1918 10.1975C69.2012 10.1541 69.2063 10.1014 69.2063 10.0411Z" fill="white"/>
<path d="M75.2059 11.4182H74.4137L74.3719 10.7748H74.3472C74.0942 11.2644 73.6632 11.5092 73.0575 11.5092C72.5737 11.5092 72.1707 11.3196 71.8513 10.9405C71.5319 10.5614 71.3726 10.0693 71.3726 9.4649C71.3726 8.81635 71.5455 8.29105 71.893 7.88985C72.2295 7.51585 72.6418 7.32885 73.1325 7.32885C73.6717 7.32885 74.0491 7.5099 74.2637 7.87285H74.2808V5.57275H75.1744V10.3387C75.1744 10.7289 75.1846 11.0884 75.2059 11.4182ZM74.2808 9.7284V9.0603C74.2808 8.9447 74.2723 8.8512 74.2561 8.7798C74.2058 8.5656 74.0976 8.3854 73.9332 8.24005C73.7671 8.0947 73.5669 8.0216 73.3361 8.0216C73.003 8.0216 72.7423 8.15335 72.5507 8.4177C72.3607 8.68205 72.2644 9.0195 72.2644 9.43175C72.2644 9.82785 72.3556 10.1492 72.5387 10.3965C72.7321 10.66 72.9928 10.7918 73.319 10.7918C73.6121 10.7918 73.8463 10.6821 74.0244 10.462C74.1964 10.2588 74.2808 10.014 74.2808 9.7284Z" fill="white"/>
<path d="M82.841 9.38149C82.841 9.99774 82.6646 10.5026 82.312 10.8987C81.9423 11.3059 81.4533 11.509 80.8408 11.509C80.2522 11.509 79.7828 11.3144 79.4319 10.9234C79.0826 10.5332 78.908 10.0411 78.908 9.44779C78.908 8.82729 79.0877 8.31814 79.4489 7.92289C79.8101 7.52764 80.2956 7.32959 80.9081 7.32959C81.4967 7.32959 81.9712 7.52424 82.329 7.91439C82.6697 8.29349 82.841 8.78309 82.841 9.38149ZM81.9159 9.41039C81.9159 9.04064 81.8358 8.72359 81.6765 8.45924C81.4882 8.13964 81.2224 7.97984 80.8749 7.97984C80.5171 7.97984 80.2445 8.13964 80.0563 8.45924C79.8961 8.72359 79.8169 9.04574 79.8169 9.42654C79.8169 9.79629 79.897 10.1133 80.0563 10.3777C80.2496 10.6973 80.5188 10.8571 80.8664 10.8571C81.2071 10.8571 81.4754 10.6947 81.668 10.3692C81.8324 10.0997 81.9159 9.78014 81.9159 9.41039Z" fill="white"/>
<path d="M87.6411 11.4182H86.7492V9.1232C86.7492 8.416 86.48 8.0624 85.9391 8.0624C85.6741 8.0624 85.4603 8.1593 85.2951 8.35395C85.1298 8.5486 85.0472 8.7781 85.0472 9.04075V11.4173H84.1536V8.55625C84.1536 8.20435 84.1434 7.8227 84.1221 7.4096H84.9058L84.9475 8.03605H84.9722C85.077 7.8414 85.232 7.68075 85.4348 7.5524C85.6776 7.4028 85.9476 7.32715 86.2449 7.32715C86.6189 7.32715 86.9306 7.44785 87.1785 7.6901C87.4877 7.98675 87.6411 8.4296 87.6411 9.0178V11.4182Z" fill="white"/>
<path d="M93.6493 8.07872H92.6662V10.0252C92.6662 10.5199 92.8409 10.7673 93.1867 10.7673C93.3469 10.7673 93.4798 10.7537 93.5845 10.7256L93.6075 11.4014C93.4312 11.4677 93.1995 11.5008 92.9141 11.5008C92.5615 11.5008 92.2872 11.3937 92.0887 11.1795C91.8893 10.9653 91.7905 10.6049 91.7905 10.0992V8.07872H91.2036V7.41147H91.7905V6.67707L92.6654 6.41357V7.41062H93.6484V8.07872H93.6493Z" fill="white"/>
<path d="M98.3754 11.4182H97.4818V9.1402C97.4818 8.42195 97.2126 8.0624 96.6734 8.0624C96.2594 8.0624 95.9766 8.27065 95.8216 8.68715C95.7952 8.7747 95.7798 8.8818 95.7798 9.0076V11.4174H94.8879V5.57275H95.7798V7.9876H95.7969C96.078 7.54815 96.4809 7.32885 97.0031 7.32885C97.3728 7.32885 97.6786 7.44955 97.9214 7.6918C98.2238 7.99355 98.3754 8.44235 98.3754 9.03565V11.4182Z" fill="white"/>
<path d="M103.251 9.22541C103.251 9.38522 103.239 9.51952 103.217 9.62917H100.54C100.552 10.0253 100.68 10.327 100.928 10.5361C101.154 10.7231 101.446 10.8166 101.804 10.8166C102.2 10.8166 102.561 10.7537 102.887 10.6271L103.026 11.2459C102.646 11.4108 102.198 11.4932 101.679 11.4932C101.057 11.4932 100.567 11.3105 100.213 10.945C99.8568 10.5795 99.6804 10.089 99.6804 9.47362C99.6804 8.86927 99.8448 8.36607 100.176 7.96487C100.522 7.53647 100.99 7.32227 101.58 7.32227C102.158 7.32227 102.596 7.53647 102.893 7.96487C103.132 8.30487 103.251 8.72562 103.251 9.22541ZM102.399 8.99507C102.405 8.73072 102.347 8.50292 102.226 8.31082C102.071 8.06347 101.835 7.93937 101.515 7.93937C101.224 7.93937 100.986 8.06007 100.805 8.30232C100.657 8.49527 100.569 8.72562 100.54 8.99507H102.399Z" fill="white"/>
</g>
<defs>
<clipPath id="clip0_1367_62938">
<rect width="115" height="34" fill="white"/>
</clipPath>
</defs>
</svg>
