<svg width="115" height="34" viewBox="0 0 115 34" fill="none" xmlns="http://www.w3.org/2000/svg">
<g clip-path="url(#clip0_1367_62970)">
<path fill-rule="evenodd" clip-rule="evenodd" d="M110.739 34H4.26083C1.91251 34 0 32.0838 0 29.75V4.25C0 1.90773 1.91251 0 4.26083 0H110.739C113.085 0 115 1.90773 115 4.25V29.75C115 32.0838 113.085 34 110.739 34Z" fill="black"/>
<path fill-rule="evenodd" clip-rule="evenodd" d="M110.739 0.680424C112.709 0.680424 114.321 2.28504 114.321 4.25V29.75C114.321 31.715 112.719 33.3196 110.739 33.3196H4.26083C2.2912 33.3196 0.679109 31.715 0.679109 29.75V4.25C0.679109 2.28504 2.28062 0.680424 4.26083 0.680424H110.739ZM110.739 0H4.26083C1.91251 0 0 1.91621 0 4.25V29.75C0 32.0923 1.91251 34 4.26083 34H110.739C113.085 34 115 32.0923 115 29.75V4.25C115 1.91621 113.085 0 110.739 0Z" fill="#A6A6A6"/>
<path d="M60.5825 11.2474C59.8146 11.2474 59.1672 10.9782 58.6552 10.4482C58.1475 9.93315 57.864 9.22305 57.8767 8.49811C57.8767 7.72442 58.139 7.06943 58.6552 6.5501C59.1651 6.02018 59.8125 5.75098 60.5804 5.75098C61.3399 5.75098 61.9873 6.02018 62.5077 6.5501C63.0239 7.08639 63.2863 7.74138 63.2863 8.49811C63.2778 9.27392 63.0155 9.92891 62.5077 10.4461C61.9979 10.9803 61.3505 11.2474 60.5825 11.2474ZM37.7319 11.2474C36.9809 11.2474 36.3292 10.9824 35.7961 10.4588C35.2672 9.93739 34.9985 9.27816 34.9985 8.50023C34.9985 7.7223 35.2672 7.06307 35.7961 6.54163C36.3187 6.01806 36.9703 5.7531 37.7319 5.7531C38.1042 5.7531 38.466 5.82729 38.813 5.97778C39.1536 6.12404 39.4307 6.3233 39.6359 6.56706L39.6867 6.62853L39.1134 7.19237L39.0541 7.12242C38.7305 6.73664 38.2968 6.54798 37.7234 6.54798C37.2115 6.54798 36.7651 6.73028 36.3969 7.09063C36.0267 7.4531 35.8384 7.92791 35.8384 8.50235C35.8384 9.07679 36.0267 9.5516 36.3969 9.91407C36.7651 10.2744 37.2115 10.4567 37.7234 10.4567C38.2693 10.4567 38.7283 10.2744 39.0859 9.91407C39.2974 9.7021 39.4286 9.40534 39.4752 9.03015H37.6367V8.23739H40.2643L40.2748 8.30946C40.2939 8.443 40.3129 8.58078 40.3129 8.70796C40.3129 9.43926 40.0929 10.0307 39.6571 10.4673C39.162 10.9845 38.5147 11.2474 37.7319 11.2474ZM68.1141 11.135H67.3038L64.8222 7.15634L64.8434 7.8728V11.1329H64.0331V5.86544H64.9576L64.983 5.90572L67.3165 9.65335L67.2953 8.93901V5.86544H68.1141V11.135ZM54.4938 11.135H53.673V6.65821H52.2492V5.86544H55.9155V6.65821H54.4917V11.135H54.4938ZM51.5806 11.135H50.7619V5.86544H51.5806V11.135ZM46.9792 11.135H46.1605V6.65821H44.7367V5.86544H48.403V6.65821H46.9792V11.135ZM44.2183 11.1265H41.0788V5.86544H44.2183V6.65821H41.8996V8.10384H43.992V8.88813H41.8996V10.3338H44.2183V11.1265ZM59.256 9.90347C59.622 10.2702 60.0663 10.4546 60.5825 10.4546C61.1136 10.4546 61.5473 10.2744 61.909 9.90347C62.2687 9.54312 62.4506 9.07043 62.4506 8.50023C62.4506 7.93003 62.2687 7.45522 61.9111 7.09699C61.5451 6.73028 61.0987 6.54586 60.5846 6.54586C60.0536 6.54586 59.6199 6.72604 59.2603 7.09699C58.9006 7.45734 58.7187 7.93003 58.7187 8.50023C58.7187 9.07043 58.8985 9.54524 59.256 9.90347Z" fill="white"/>
<path fill-rule="evenodd" clip-rule="evenodd" d="M57.8004 18.4923C55.8012 18.4923 54.1806 20.0121 54.1806 22.1085C54.1806 24.1858 55.8117 25.7247 57.8004 25.7247C59.7997 25.7247 61.4202 24.1942 61.4202 22.1085C61.4202 20.0121 59.7997 18.4923 57.8004 18.4923ZM57.8004 24.2918C56.7066 24.2918 55.7652 23.3845 55.7652 22.1C55.7652 20.7964 56.7088 19.9082 57.8004 19.9082C58.8942 19.9082 59.8356 20.7964 59.8356 22.1C59.8377 23.393 58.8942 24.2918 57.8004 24.2918ZM49.9029 18.4923C47.9036 18.4923 46.2831 20.0121 46.2831 22.1085C46.2831 24.1858 47.9142 25.7247 49.9029 25.7247C51.9021 25.7247 53.5227 24.1942 53.5227 22.1085C53.5227 20.0121 51.9 18.4923 49.9029 18.4923ZM49.9029 24.2918C48.8091 24.2918 47.8677 23.3845 47.8677 22.1C47.8677 20.7964 48.8112 19.9082 49.9029 19.9082C50.9966 19.9082 51.9381 20.7964 51.9381 22.1C51.9381 23.393 50.9966 24.2918 49.9029 24.2918ZM40.5053 19.5966V21.127H44.1717C44.0596 21.9855 43.7761 22.6193 43.3424 23.0538C42.805 23.5923 41.9757 24.1773 40.5138 24.1773C38.2607 24.1773 36.4984 22.3543 36.4984 20.0969C36.4984 17.8394 38.2607 16.0164 40.5138 16.0164C41.7303 16.0164 42.6167 16.4976 43.2747 17.1123L44.3579 16.027C43.4439 15.1495 42.2275 14.4775 40.5223 14.4775C37.4314 14.4775 34.8376 17 34.8376 20.0884C34.8376 23.1853 37.4293 25.6992 40.5223 25.6992C42.1915 25.6992 43.4439 25.1524 44.434 24.1222C45.4432 23.1111 45.7626 21.6845 45.7626 20.5335C45.7626 20.1753 45.7351 19.8531 45.678 19.5797H40.5032C40.5054 19.5775 40.5053 19.5966 40.5053 19.5966ZM78.9438 20.7879C78.6412 19.976 77.7273 18.4838 75.8529 18.4838C73.9954 18.4838 72.451 19.9485 72.451 22.1C72.451 24.1307 73.9784 25.7162 76.0327 25.7162C77.6829 25.7162 78.6433 24.7051 79.039 24.1116L77.814 23.2891C77.4078 23.8932 76.843 24.2896 76.0411 24.2896C75.2309 24.2896 74.6639 23.9208 74.2873 23.1937L79.113 21.1906C79.113 21.1928 78.9438 20.7879 78.9438 20.7879ZM74.0229 21.9961C73.9848 20.5992 75.1061 19.8891 75.9079 19.8891C76.5404 19.8891 77.0672 20.2007 77.247 20.6543L74.0229 21.9961ZM70.1026 25.5H71.6872V14.876H70.1026V25.5ZM67.5005 19.2956H67.4433C67.0858 18.8696 66.4067 18.4838 65.5393 18.4838C63.7389 18.4838 62.0803 20.0714 62.0803 22.1106C62.0803 24.1413 63.7304 25.7098 65.5393 25.7098C66.3961 25.7098 67.0858 25.3219 67.4433 24.8874H67.5005V25.4067C67.5005 26.7866 66.7642 27.5307 65.5774 27.5307C64.6063 27.5307 64.0034 26.8312 63.758 26.2461L62.3807 26.8227C62.7763 27.7765 63.832 28.9572 65.5753 28.9572C67.4328 28.9572 69.0068 27.8613 69.0068 25.1884V18.7H67.5089V19.2956C67.511 19.2956 67.5005 19.2956 67.5005 19.2956ZM65.681 24.2918C64.5873 24.2918 63.6733 23.376 63.6733 22.1106C63.6733 20.8345 64.5873 19.9103 65.681 19.9103C66.7642 19.9103 67.6041 20.8451 67.6041 22.1106C67.6147 23.376 66.7663 24.2918 65.681 24.2918ZM86.3632 14.876H82.5741V25.5H84.1587V21.4768H86.3653C88.1191 21.4768 89.8434 20.2029 89.8434 18.1807C89.8434 16.1585 88.1255 14.876 86.3632 14.876ZM86.4097 19.993H84.1566V16.3471H86.4097C87.5966 16.3471 88.2672 17.3285 88.2672 18.1701C88.2672 19.0031 87.5881 19.993 86.4097 19.993ZM96.1944 18.4732C95.0435 18.4732 93.8567 18.984 93.3658 20.0969L94.7706 20.6819C95.0731 20.0969 95.6274 19.8976 96.2134 19.8976C97.0343 19.8976 97.8636 20.3894 97.8826 21.2669V21.3793C97.5992 21.2182 96.9772 20.9723 96.2325 20.9723C94.7156 20.9723 93.1775 21.8032 93.1775 23.3612C93.1775 24.7878 94.4215 25.7035 95.8072 25.7035C96.8714 25.7035 97.4574 25.2223 97.8234 24.6648H97.8805V25.4873H99.408V21.4174C99.408 19.5224 98.0032 18.4732 96.1944 18.4732ZM95.9955 24.2918C95.4772 24.2918 94.7516 24.0374 94.7516 23.3845C94.7516 22.5621 95.657 22.2505 96.4292 22.2505C97.1274 22.2505 97.4574 22.401 97.8721 22.6087C97.7578 23.5626 96.9539 24.2833 95.9955 24.2918ZM104.98 18.7L103.161 23.3082H103.104L101.219 18.7H99.5138L102.342 25.1418L100.73 28.7219H102.38L106.732 18.7H104.98ZM90.7171 25.5H92.3017V14.876H90.7171V25.5Z" fill="white"/>
<path fill-rule="evenodd" clip-rule="evenodd" d="M8.85175 6.40342C8.60634 6.66839 8.4646 7.07325 8.4646 7.60317V26.3986C8.4646 26.9285 8.60634 27.3333 8.86022 27.5877L8.9258 27.6449L19.4361 17.1143V16.879L8.91734 6.34619L8.85175 6.40342Z" fill="url(#paint0_linear_1367_62970)"/>
<path fill-rule="evenodd" clip-rule="evenodd" d="M22.933 20.6353L19.4275 17.123V16.8771L22.933 13.3647L23.0092 13.4114L27.1558 15.7727C28.3426 16.4426 28.3426 17.549 27.1558 18.2273L23.0092 20.5887L22.933 20.6353Z" fill="url(#paint1_linear_1367_62970)"/>
<path fill-rule="evenodd" clip-rule="evenodd" d="M23.0094 20.5887L19.4277 17L8.85181 27.5964C9.23896 28.0118 9.88845 28.0585 10.6141 27.6536L23.0094 20.5887Z" fill="url(#paint2_linear_1367_62970)"/>
<path fill-rule="evenodd" clip-rule="evenodd" d="M23.0094 13.4116L10.6141 6.35721C9.88845 5.94175 9.23685 5.99898 8.85181 6.41444L19.4277 17.0002L23.0094 13.4116Z" fill="url(#paint3_linear_1367_62970)"/>
<path opacity="0.2" fill-rule="evenodd" clip-rule="evenodd" d="M22.9331 20.5122L10.6224 27.5199C9.93483 27.9163 9.32131 27.8888 8.92569 27.5284L8.86011 27.5941L8.92569 27.6514C9.32131 28.0096 9.93483 28.0393 10.6224 27.6429L23.0177 20.5885L22.9331 20.5122Z" fill="black"/>
<path opacity="0.12" fill-rule="evenodd" clip-rule="evenodd" d="M27.1559 18.1044L22.9226 20.5123L22.9988 20.5887L27.1454 18.2273C27.7398 17.8882 28.0318 17.443 28.0318 17C27.9958 17.407 27.6933 17.7928 27.1559 18.1044Z" fill="black"/>
<path opacity="0.25" fill-rule="evenodd" clip-rule="evenodd" d="M10.6141 6.47995L27.156 15.8957C27.6933 16.1988 27.9959 16.5952 28.0424 17C28.0424 16.557 27.7504 16.1119 27.156 15.7727L10.6141 6.357C9.4272 5.67658 8.4646 6.24466 8.4646 7.60339V7.72633C8.4646 6.36548 9.4272 5.808 10.6141 6.47995Z" fill="white"/>
</g>
<defs>
<linearGradient id="paint0_linear_1367_62970" x1="18.4934" y1="7.40039" x2="1.65333" y2="11.8788" gradientUnits="userSpaceOnUse">
<stop stop-color="#00A0FF"/>
<stop offset="0.00657" stop-color="#00A1FF"/>
<stop offset="0.2601" stop-color="#00BEFF"/>
<stop offset="0.5122" stop-color="#00D2FF"/>
<stop offset="0.7604" stop-color="#00DFFF"/>
<stop offset="1" stop-color="#00E3FF"/>
</linearGradient>
<linearGradient id="paint1_linear_1367_62970" x1="28.7036" y1="17.0001" x2="8.17597" y2="17.0001" gradientUnits="userSpaceOnUse">
<stop stop-color="#FFE000"/>
<stop offset="0.4087" stop-color="#FFBD00"/>
<stop offset="0.7754" stop-color="#FFA500"/>
<stop offset="1" stop-color="#FF9C00"/>
</linearGradient>
<linearGradient id="paint2_linear_1367_62970" x1="21.0618" y1="18.9527" x2="7.50751" y2="41.7217" gradientUnits="userSpaceOnUse">
<stop stop-color="#FF3A44"/>
<stop offset="1" stop-color="#C31162"/>
</linearGradient>
<linearGradient id="paint3_linear_1367_62970" x1="6.18868" y1="0.152198" x2="12.2358" y2="10.3212" gradientUnits="userSpaceOnUse">
<stop stop-color="#32A071"/>
<stop offset="0.0685" stop-color="#2DA771"/>
<stop offset="0.4762" stop-color="#15CF74"/>
<stop offset="0.8009" stop-color="#06E775"/>
<stop offset="1" stop-color="#00F076"/>
</linearGradient>
<clipPath id="clip0_1367_62970">
<rect width="115" height="34" fill="white"/>
</clipPath>
</defs>
</svg>
