<svg width="125" height="36" viewBox="0 0 125 36" fill="none" xmlns="http://www.w3.org/2000/svg">
<g clip-path="url(#clip0_1450_29025)">
<path d="M11.1606 19.5883C12.3335 19.5883 13.2816 18.5979 13.2816 17.3827V11.1188C13.2816 9.89899 12.3291 8.91309 11.1606 8.91309C9.98762 8.91309 9.03957 9.90357 9.03957 11.1188V17.3827C9.03516 18.5979 9.98762 19.5883 11.1606 19.5883Z" fill="url(#paint0_linear_1450_29025)"/>
<path d="M45.2465 14.544C46.4194 14.544 47.3675 13.5535 47.3675 12.3383V10.9947C47.3675 9.77496 46.415 8.78906 45.2465 8.78906C44.0735 8.78906 43.1255 9.77955 43.1255 10.9947V12.3383C43.1255 13.5535 44.0779 14.544 45.2465 14.544Z" fill="url(#paint1_linear_1450_29025)"/>
<path d="M54.3566 21.4133C55.5295 21.4133 56.4776 20.4228 56.4776 19.2076C56.4776 17.9879 55.5251 17.002 54.3566 17.002C53.1836 17.002 52.2356 17.9924 52.2356 19.2076C52.2356 20.4228 53.1836 21.4133 54.3566 21.4133Z" fill="url(#paint2_linear_1450_29025)"/>
<path d="M28.0226 4.96944C29.1955 4.96944 30.1436 3.97896 30.1436 2.76378C30.1436 1.54401 29.1911 0.558105 28.0226 0.558105C26.8497 0.558105 25.9016 1.54859 25.9016 2.76378C25.9016 3.98354 26.8541 4.96944 28.0226 4.96944Z" fill="url(#paint3_linear_1450_29025)"/>
<path d="M45.2465 28.4202C46.4194 28.4202 47.3675 27.4297 47.3675 26.2145V19.3453C47.3675 18.1256 46.415 17.1396 45.2465 17.1396C44.0735 17.1396 43.1255 18.1301 43.1255 19.3453V26.2099C43.1255 27.4297 44.0779 28.4202 45.2465 28.4202Z" fill="url(#paint4_linear_1450_29025)"/>
<path d="M2.12099 23.4174C3.29393 23.4174 4.24199 22.4269 4.24199 21.2117V16.86C4.24199 15.6402 3.28952 14.6543 2.12099 14.6543C0.952463 14.6543 0 15.6448 0 16.86V21.2117C0 22.4315 0.952463 23.4174 2.12099 23.4174Z" fill="url(#paint5_linear_1450_29025)"/>
<path d="M28.2565 35.6515C29.4294 35.6515 30.3775 34.661 30.3775 33.4458V25.6549C30.3775 24.4351 29.425 23.4492 28.2565 23.4492C27.0836 23.4492 26.1355 24.4397 26.1355 25.6549V33.4458C26.1311 34.661 27.0836 35.6515 28.2565 35.6515Z" fill="url(#paint6_linear_1450_29025)"/>
<path d="M11.1606 28.4662C12.3335 28.4662 13.2816 27.4757 13.2816 26.2605V24.839C13.2816 23.6192 12.3291 22.6333 11.1606 22.6333C9.98762 22.6333 9.03957 23.6238 9.03957 24.839V26.2605C9.03516 27.4803 9.98762 28.4662 11.1606 28.4662Z" fill="url(#paint7_linear_1450_29025)"/>
<path d="M36.8417 4.30439H36.4052C35.8408 4.30439 35.3381 4.51533 34.9941 4.8409L28.1902 9.18805C28.177 9.18805 28.1637 9.18805 28.1505 9.18805L21.3157 4.80881C21.2848 4.78129 21.2584 4.75836 21.2275 4.73085L21.2143 4.72168L21.2055 4.71709C20.8703 4.4603 20.425 4.2998 19.9311 4.2998H19.4946C18.4363 4.2998 17.5808 5.01057 17.5808 5.891V30.5615C17.5808 31.4419 18.4363 32.1527 19.4946 32.1527H19.9135C20.9718 32.1527 21.8272 31.4419 21.8272 30.5615V13.8332C21.8316 13.8332 21.836 13.8287 21.836 13.8241C21.836 13.0583 22.3916 12.3292 23.2691 12.0953C24.5259 11.7651 25.69 12.3796 25.9942 13.2967V13.3013V18.694C25.9942 19.5744 26.8497 20.2852 27.908 20.2852H28.3269C29.3852 20.2852 30.2406 19.5744 30.2406 18.694V13.8332H30.245C30.2494 13.8332 30.2539 13.8287 30.2539 13.8241C30.2539 13.0537 30.8095 12.3246 31.6914 12.0953C33.1553 11.7147 34.4958 12.6135 34.4958 13.7691V13.8332H34.5047V30.5661C34.5047 31.4465 35.3601 32.1573 36.4184 32.1573H36.8373C37.8956 32.1573 38.7511 31.4465 38.7511 30.5661V5.89559C38.7555 5.01516 37.9 4.30439 36.8417 4.30439Z" fill="url(#paint8_linear_1450_29025)"/>
<path d="M77.3996 23.4177C77.3021 22.6713 77.228 22.2048 77.1656 21.9979L77.1461 21.9492C77.0485 21.7869 76.8574 21.6977 76.5765 21.6774C76.4907 21.6693 76.3854 21.6733 76.2683 21.6896L76.2215 21.7017C75.9836 21.8072 75.7846 22.0425 75.6208 22.4279C75.4296 22.8903 75.1878 23.4948 74.8913 24.2453C74.5948 24.9917 74.3374 25.6367 74.115 26.1803C73.9161 26.6671 73.7132 27.1377 73.5104 27.5961C73.4753 27.5109 73.4441 27.4338 73.4207 27.3568L71.5677 22.3386C71.4039 21.9208 71.1581 21.7058 70.8343 21.6977C70.6549 21.6977 70.4871 21.7342 70.3272 21.8113C70.0892 21.9249 70.0073 22.0993 69.98 22.2372C69.9761 22.2656 69.941 22.5293 69.8669 23.0283L69.5548 25.2513C69.2817 27.1945 69.0867 28.4967 68.9736 29.1336C68.9502 29.3324 69.0048 29.5109 69.1257 29.6528C69.2505 29.7989 69.4222 29.8719 69.6367 29.8719C70.0151 29.8719 70.257 29.6731 70.3194 29.3121C70.3506 29.1214 70.413 28.6792 70.4988 27.9855L70.9748 24.2007L71.5833 25.8639C72.0943 27.2594 72.4844 28.302 72.7419 28.9632C72.816 29.1579 72.8979 29.2999 72.9915 29.3973C73.1047 29.5149 73.2568 29.5717 73.448 29.5717C73.7054 29.5961 74.0526 29.4744 74.2828 28.9429L76.2059 24.2169C76.2683 24.7808 76.3425 25.4947 76.4322 26.3629C76.5648 27.6488 76.674 28.6306 76.756 29.2796C76.8106 29.665 77.0485 29.88 77.4308 29.88C77.6532 29.88 77.8248 29.8151 77.9419 29.6853C78.0589 29.5555 78.1096 29.3729 78.094 29.1255L77.7663 26.4237C77.622 25.154 77.4971 24.1479 77.3996 23.4177Z" fill="#8A8D8F"/>
<path d="M77.4426 29.9859C77.0135 29.9859 76.7327 29.7343 76.6703 29.3003C76.5883 28.639 76.4791 27.6573 76.3465 26.3795C76.2763 25.6979 76.2138 25.1097 76.1592 24.6189L74.3804 28.9879C74.0878 29.6613 73.6314 29.6938 73.4481 29.6775C73.2413 29.6775 73.0619 29.6045 72.9331 29.4707C72.8278 29.3611 72.742 29.207 72.6601 29.0001C72.3987 28.3307 72.0086 27.2882 71.5015 25.8967L71.0295 24.6107L70.6043 27.9981C70.5107 28.7364 70.4521 29.1461 70.4209 29.3287C70.3468 29.7384 70.062 29.9696 69.6407 29.9696C69.395 29.9696 69.1999 29.8844 69.0556 29.7181C68.9152 29.5558 68.8527 29.3449 68.8801 29.1177C68.9971 28.4605 69.1921 27.1583 69.4613 25.2314L69.8514 22.4566C69.8709 22.3106 69.8826 22.2295 69.8865 22.2173C69.9294 21.9901 70.0698 21.8197 70.2883 21.7143C70.4599 21.6331 70.6433 21.5926 70.8383 21.5926C71.205 21.6047 71.482 21.84 71.6614 22.2984L73.5183 27.3206C73.5183 27.3247 73.5222 27.3328 73.5222 27.3368C73.6938 26.9433 73.8655 26.5417 74.0293 26.1401C74.2517 25.5965 74.5091 24.9515 74.8056 24.2051C75.1021 23.4546 75.3439 22.8501 75.5351 22.3877C75.7106 21.9779 75.9252 21.7224 76.1904 21.6047L76.249 21.5885C76.3816 21.5682 76.4908 21.5642 76.5883 21.5723C76.9043 21.5926 77.1189 21.698 77.232 21.8928L77.2593 21.9536C77.3256 22.1808 77.3997 22.6514 77.4973 23.4018C77.5948 24.132 77.7196 25.1381 77.8756 26.416L78.2033 29.1177C78.2228 29.3936 78.1604 29.6045 78.0278 29.7587C77.8913 29.9088 77.6962 29.9859 77.4426 29.9859ZM76.2724 23.8278L76.3153 24.2091C76.3777 24.773 76.4518 25.487 76.5454 26.3551C76.6781 27.633 76.7873 28.6147 76.8692 29.2719C76.916 29.6045 77.115 29.783 77.4465 29.783C77.6416 29.783 77.7898 29.7303 77.8874 29.6207C77.9849 29.5112 78.0239 29.353 78.0122 29.138L77.6845 26.4444C77.5285 25.1665 77.4036 24.1604 77.3061 23.4302C77.2086 22.6879 77.1345 22.2254 77.076 22.0226L77.0604 21.9861C76.9862 21.8644 76.8263 21.7913 76.5727 21.7751C76.4869 21.767 76.3894 21.7711 76.2841 21.7873L76.2529 21.7995C76.05 21.8887 75.8706 22.1118 75.7145 22.4688C75.5234 22.9313 75.2815 23.5357 74.985 24.2821C74.6886 25.0286 74.4311 25.6736 74.2088 26.2212C74.0137 26.6999 73.807 27.1786 73.6041 27.6411L73.5105 27.848L73.4247 27.637C73.3857 27.5478 73.3583 27.4666 73.331 27.3896L71.4781 22.3755C71.326 21.9982 71.1153 21.8076 70.8344 21.7995C70.6745 21.7995 70.5146 21.836 70.3702 21.9049C70.2103 21.982 70.1089 22.0996 70.0776 22.2579C70.0776 22.266 70.0659 22.3471 70.0464 22.4891L69.6563 25.2639C69.3872 27.1908 69.1882 28.497 69.0751 29.1502C69.0556 29.3124 69.1024 29.4666 69.2038 29.5842C69.3092 29.7059 69.4535 29.7668 69.6407 29.7668C69.9684 29.7668 70.1752 29.6005 70.2298 29.2922C70.261 29.1137 70.3195 28.6958 70.4092 27.9697L70.9359 23.7872L71.6809 25.8277C72.1881 27.2151 72.5782 28.2577 72.8395 28.9271C72.9097 29.1096 72.9839 29.2394 73.0697 29.3287C73.1633 29.426 73.292 29.4747 73.4559 29.4747C73.6392 29.4909 73.9708 29.4382 74.201 28.9068L76.2724 23.8278Z" fill="#8A8D8F"/>
<path d="M83.6682 27.4619C84.1207 27.4537 84.4055 27.3685 84.5498 27.1982C84.6903 27.0359 84.7566 26.7803 84.7566 26.4152C84.7566 25.8351 84.5069 25.3118 84.0115 24.8534C83.5239 24.4031 82.9231 24.1719 82.2288 24.1719C81.4291 24.1719 80.7464 24.4802 80.1925 25.0846C79.6424 25.6891 79.3655 26.4152 79.3655 27.2468C79.3811 27.973 79.662 28.6018 80.2003 29.117C80.7347 29.6322 81.3901 29.8918 82.143 29.8918C82.9739 29.8918 83.6526 29.7174 84.1597 29.3766C84.4367 29.2103 84.5772 29.0074 84.5772 28.764C84.5772 28.6058 84.5147 28.4598 84.386 28.3259C84.2573 28.1961 84.109 28.1271 83.9491 28.1271C83.8867 28.1271 83.7853 28.1434 83.4576 28.2935C83.0987 28.5247 82.693 28.6383 82.2522 28.6383C81.8114 28.6383 81.4603 28.5044 81.1794 28.2286C80.9532 28.0054 80.8166 27.758 80.762 27.4781C81.0507 27.4781 81.3745 27.474 81.7256 27.474C82.6072 27.47 83.1416 27.4781 83.6682 27.4619ZM83.442 26.3828C83.1923 26.3949 81.6085 26.4193 80.8166 26.4355C80.8908 26.184 81.0351 25.9609 81.2535 25.754C81.5344 25.4903 81.8699 25.3605 82.2795 25.3605C82.6033 25.3605 82.8724 25.466 83.1065 25.6769C83.3132 25.8635 83.4225 26.0947 83.442 26.3828Z" fill="#8A8D8F"/>
<path d="M82.1467 29.9975C81.3704 29.9975 80.6917 29.7297 80.1377 29.1983C79.5799 28.6628 79.2873 28.0097 79.2717 27.2551C79.2717 26.3951 79.5604 25.6446 80.126 25.0199C80.6956 24.3911 81.4055 24.0747 82.2325 24.0747C82.9542 24.0747 83.5784 24.3141 84.0816 24.7806C84.5965 25.2593 84.8579 25.8069 84.8579 26.4154C84.8579 26.8049 84.7838 27.0807 84.6277 27.2633C84.46 27.458 84.1596 27.5513 83.6759 27.5635C83.3326 27.5716 82.9854 27.5756 82.5368 27.5756C82.3028 27.5756 82.0375 27.5756 81.7332 27.5797C81.429 27.5837 81.1481 27.5837 80.8945 27.5837C80.9569 27.7947 81.074 27.9854 81.2534 28.1598C81.5148 28.4154 81.8425 28.5411 82.2599 28.5411C82.6812 28.5411 83.0713 28.4316 83.4145 28.2085C83.75 28.0584 83.8709 28.03 83.9568 28.03C84.144 28.03 84.3157 28.1071 84.46 28.2571C84.6082 28.4113 84.6823 28.5817 84.6823 28.7683C84.6823 29.0482 84.5263 29.2835 84.2181 29.466C83.6915 29.819 82.9971 29.9975 82.1467 29.9975ZM82.2325 24.2775C81.4641 24.2775 80.8009 24.5737 80.2704 25.1578C79.7398 25.742 79.4707 26.4438 79.4707 27.2511C79.4863 27.9448 79.7594 28.5492 80.2743 29.0482C80.7931 29.5431 81.4212 29.7946 82.1506 29.7946C82.962 29.7946 83.6213 29.6283 84.1128 29.2957C84.3586 29.1496 84.4834 28.9711 84.4834 28.7683C84.4834 28.6344 84.4288 28.5168 84.3196 28.3991C84.2103 28.2855 84.0894 28.2328 83.9529 28.2328C83.9061 28.2328 83.8085 28.249 83.5004 28.391C83.1376 28.6223 82.7163 28.744 82.256 28.744C81.7878 28.744 81.4173 28.602 81.1169 28.3099C80.8711 28.0705 80.7268 27.8069 80.6722 27.5026L80.6488 27.3809H80.7658C81.0545 27.3809 81.3782 27.3768 81.7293 27.3768C82.0336 27.3728 82.2989 27.3728 82.5329 27.3728C82.9776 27.3728 83.3248 27.3687 83.6642 27.3606C84.0855 27.3525 84.3508 27.2754 84.4756 27.1294C84.5965 26.9874 84.6589 26.7521 84.6589 26.4154C84.6589 25.8678 84.421 25.3688 83.949 24.9307C83.4809 24.4966 82.9035 24.2775 82.2325 24.2775ZM80.6839 26.5371L80.7229 26.4032C80.8009 26.1355 80.953 25.8962 81.1871 25.6771L81.1988 25.6649C81.4953 25.3891 81.8503 25.2552 82.2794 25.2552C82.6265 25.2552 82.9191 25.3647 83.1727 25.596C83.4028 25.8029 83.5199 26.0584 83.5394 26.3748L83.5472 26.4763L83.4497 26.4803C83.1805 26.4925 81.3704 26.5209 80.8204 26.5331L80.6839 26.5371ZM81.308 25.8353C81.1442 25.9895 81.0311 26.1517 80.9569 26.3262C81.5616 26.3181 82.9035 26.2937 83.3365 26.2815C83.3053 26.0706 83.2078 25.8962 83.0478 25.7461C82.8333 25.5513 82.5836 25.454 82.2833 25.454C81.8971 25.454 81.585 25.5757 81.3236 25.8191L81.308 25.8353Z" fill="#8A8D8F"/>
<path d="M89.4296 24.1519C88.9888 24.1519 88.5714 24.2573 88.1891 24.4642C87.9941 24.5697 87.8264 24.6995 87.682 24.8496C87.6586 24.6589 87.6118 24.5129 87.5377 24.4115C87.4402 24.2776 87.2763 24.2086 87.0462 24.2086C86.7965 24.2086 86.6132 24.2817 86.5 24.4277C86.3986 24.5616 86.3479 24.7482 86.344 25.0038L86.3674 26.2086V27.7542C86.3674 28.0706 86.3635 28.3749 86.3596 28.6629C86.3557 28.9509 86.3518 29.1497 86.3518 29.2552C86.3518 29.6446 86.5898 29.8677 87.0033 29.8677C87.6352 29.8677 87.7054 29.4377 87.7054 29.2552V27.3566C87.7054 27.1254 87.7171 26.9145 87.7405 26.7319C87.76 26.5615 87.8069 26.379 87.8732 26.1964C87.9356 26.026 88.0175 25.8841 88.1189 25.7745C88.2203 25.665 88.3608 25.5758 88.5441 25.5027C88.7275 25.4297 88.9498 25.3891 89.2034 25.3891C89.6637 25.3932 90.2801 25.5474 90.2957 26.8496C90.3035 27.1335 90.2996 27.5514 90.284 28.095C90.2684 28.6467 90.2605 29.0239 90.2605 29.2227C90.2605 29.6203 90.4985 29.8474 90.912 29.8474C91.1656 29.8474 91.3528 29.7785 91.4659 29.6487C91.5791 29.5229 91.6337 29.3322 91.6337 29.0848V26.5737C91.6337 25.8313 91.4386 25.235 91.0602 24.805C90.6858 24.3709 90.1357 24.1519 89.4296 24.1519Z" fill="#8A8D8F"/>
<path d="M87.0151 29.9732C86.547 29.9732 86.2661 29.7055 86.2661 29.2592C86.2661 29.1538 86.27 28.955 86.2739 28.6629C86.2778 28.3749 86.2817 28.0747 86.2817 27.7583V26.2127L86.2583 25.0078C86.2583 24.7279 86.3168 24.521 86.4338 24.3669C86.5665 24.1965 86.7771 24.1072 87.0541 24.1072C87.3155 24.1072 87.5066 24.1884 87.6236 24.3506C87.6782 24.4318 87.7212 24.5291 87.7524 24.6468C87.8694 24.5454 88.002 24.4521 88.1503 24.3709C88.5443 24.1559 88.9773 24.0464 89.4337 24.0464C90.1671 24.0464 90.7444 24.2776 91.1462 24.732C91.5441 25.1823 91.7469 25.7989 91.7469 26.5696V29.0807C91.7469 29.3525 91.6806 29.5635 91.5519 29.7136C91.4154 29.8677 91.2047 29.9448 90.9238 29.9448C90.4557 29.9448 90.1749 29.673 90.1749 29.2187C90.1749 29.0199 90.1827 28.6386 90.1983 28.0909C90.2139 27.5514 90.2178 27.1335 90.21 26.8536C90.1944 25.6528 89.6677 25.4946 89.2113 25.4906C88.9734 25.4906 88.7627 25.5271 88.5872 25.596C88.4194 25.665 88.2868 25.7461 88.1971 25.8435C88.1035 25.9409 88.0293 26.0747 87.9708 26.2329C87.9084 26.4074 87.8655 26.5778 87.846 26.7441C87.8226 26.9226 87.8109 27.1295 87.8109 27.3566V29.2552C87.8148 29.4256 87.7563 29.9732 87.0151 29.9732ZM87.0541 24.3101C86.8356 24.3101 86.6757 24.3709 86.586 24.4926C86.4963 24.6062 86.4533 24.7766 86.4533 25.0038L86.4768 26.2086V27.7583C86.4768 28.0747 86.4729 28.3789 86.4689 28.667C86.465 28.955 86.4611 29.1538 86.4611 29.2592C86.4611 29.6852 86.7615 29.7704 87.0151 29.7704C87.5144 29.7704 87.6197 29.4905 87.6197 29.2592V27.3607C87.6197 27.1254 87.6314 26.9104 87.6548 26.7238C87.6782 26.5413 87.7212 26.3546 87.7914 26.164C87.8577 25.9774 87.9513 25.8232 88.0605 25.7056C88.1698 25.5879 88.3219 25.4865 88.517 25.4094C88.712 25.3324 88.9461 25.2918 89.2113 25.2918C89.9993 25.2999 90.3894 25.811 90.4011 26.8536C90.4089 27.1376 90.405 27.5595 90.3894 28.1031C90.3738 28.6507 90.366 29.028 90.366 29.2268C90.366 29.6608 90.6664 29.7501 90.9199 29.7501C91.1423 29.7501 91.3061 29.6933 91.4037 29.5838C91.4973 29.4742 91.548 29.3079 91.548 29.0889V26.5778C91.548 25.8597 91.3647 25.2877 90.998 24.878C90.6313 24.4642 90.1046 24.2573 89.4259 24.2573C89.0007 24.2573 88.5989 24.3588 88.2322 24.5575C88.0449 24.6589 87.885 24.7806 87.7524 24.9226L87.6119 25.0727L87.5885 24.8658C87.569 24.6914 87.5261 24.5656 87.4637 24.4764C87.3857 24.3628 87.2491 24.3101 87.0541 24.3101Z" fill="#8A8D8F"/>
<path d="M96.5258 28.5538C96.4516 28.5538 96.3502 28.5741 96.2215 28.6147C96.1279 28.6431 96.0342 28.6593 95.9406 28.6593C95.6519 28.6593 95.5544 28.5376 95.5076 28.4443C95.4101 28.2658 95.3633 27.9615 95.3633 27.5315V25.4707H96.3697C96.7676 25.4707 96.9978 25.2517 96.9978 24.8663C96.9978 24.4809 96.7676 24.2618 96.3658 24.2618L95.3555 24.2699C95.3672 23.9089 95.3711 23.6168 95.3711 23.3978C95.3711 23.1706 95.3321 23.0043 95.2502 22.8907C95.1565 22.7568 95.0005 22.6919 94.7781 22.6919C94.3256 22.6919 94.0643 23.0002 94.0643 23.5316L94.0526 24.274H93.4947C93.0812 24.274 92.8433 24.4971 92.8433 24.8866C92.8433 25.2638 93.0617 25.4788 93.4479 25.4788H94.0487C94.0487 25.7222 94.0448 26.0549 94.037 26.4768C94.0292 27.0244 94.0253 27.426 94.0253 27.6857C94.0253 28.4483 94.1735 28.9879 94.4739 29.3449C94.7781 29.7018 95.2501 29.8803 95.886 29.8803C96.2254 29.8803 96.4985 29.8317 96.7286 29.7262C96.951 29.6207 97.0758 29.4138 97.0758 29.1501C97.0758 28.996 97.0251 28.8581 96.9315 28.7404C96.8339 28.6187 96.6935 28.5538 96.5258 28.5538Z" fill="#8A8D8F"/>
<path d="M95.8939 29.9854C95.2308 29.9854 94.7315 29.7947 94.4077 29.4134C94.0917 29.0402 93.9357 28.4763 93.9357 27.6893C93.9357 27.4297 93.9396 27.028 93.9474 26.4804C93.9513 26.1153 93.9552 25.8192 93.9591 25.5879H93.4558C93.015 25.5879 92.7537 25.3283 92.7537 24.8942C92.7537 24.448 93.0345 24.1803 93.5026 24.1803H93.963L93.9708 23.5393C93.9708 22.9511 94.275 22.5981 94.7822 22.5981C95.0357 22.5981 95.223 22.6793 95.3361 22.8375C95.4297 22.9673 95.4726 23.1539 95.4726 23.4014C95.4726 23.6001 95.4687 23.8557 95.457 24.1721L96.366 24.164C96.8224 24.164 97.0954 24.4277 97.0954 24.8699C97.0954 25.3121 96.8224 25.5758 96.3699 25.5758H95.4609V27.5311C95.4609 28.0422 95.5311 28.2816 95.5936 28.3951C95.6209 28.4438 95.6794 28.5574 95.9447 28.5574C96.0266 28.5574 96.1124 28.5452 96.1982 28.5168C96.3347 28.4763 96.444 28.4519 96.5298 28.4519C96.7248 28.4519 96.8926 28.5331 97.0174 28.6832C97.1305 28.8211 97.1852 28.9793 97.1852 29.1578C97.1852 29.458 97.0369 29.7014 96.7795 29.8231C96.5337 29.9326 96.245 29.9854 95.8939 29.9854ZM93.5026 24.379C93.2491 24.379 92.9487 24.4683 92.9487 24.8902C92.9487 25.2958 93.2257 25.381 93.4558 25.381H94.1541V25.4824C94.1541 25.7259 94.1502 26.0585 94.1424 26.4804C94.1346 27.028 94.1307 27.4297 94.1307 27.6852C94.1307 28.4195 94.2672 28.9428 94.552 29.2755C94.8368 29.6081 95.2854 29.7785 95.89 29.7785C96.2177 29.7785 96.4791 29.7298 96.6936 29.6324C96.8809 29.5432 96.9823 29.3769 96.9823 29.1497C96.9823 29.0199 96.9394 28.9063 96.8614 28.8049C96.7756 28.6994 96.6624 28.6467 96.5259 28.6467C96.4596 28.6467 96.3699 28.6669 96.2489 28.7035C96.1436 28.7359 96.0422 28.7521 95.9407 28.7521C95.6872 28.7521 95.5155 28.6669 95.4219 28.4844C95.3166 28.2897 95.2659 27.9773 95.2659 27.523V25.3648H96.3699C96.6117 25.3648 96.9004 25.2796 96.9004 24.8618C96.9004 24.448 96.6117 24.3587 96.366 24.3587L95.2542 24.3709L95.2581 24.2654C95.2698 23.9044 95.2737 23.6164 95.2737 23.3973C95.2737 23.1945 95.2425 23.0484 95.1723 22.9511C95.0981 22.8456 94.9655 22.7929 94.7783 22.7929C94.3804 22.7929 94.1619 23.0565 94.1619 23.5312L94.1502 24.375H93.5026V24.379Z" fill="#8A8D8F"/>
<path d="M103.953 25.0521C103.953 24.8006 103.914 24.6099 103.828 24.4761C103.727 24.3138 103.551 24.2326 103.301 24.2326C102.966 24.2326 102.74 24.4314 102.689 24.7722C102.685 24.7844 102.685 24.7925 102.681 24.8046C102.264 24.403 101.725 24.2002 101.066 24.2002C100.247 24.2002 99.5486 24.4882 98.9947 25.0562C98.4369 25.6241 98.156 26.3462 98.156 27.2021C98.156 27.9405 98.4135 28.5814 98.9206 29.1007C99.4277 29.6199 100.091 29.8836 100.883 29.8836C101.647 29.8836 102.248 29.6524 102.681 29.194C102.705 29.3319 102.728 29.4414 102.759 29.5226C102.806 29.6443 102.935 29.8512 103.274 29.8512C103.906 29.8512 103.976 29.4455 103.976 29.2589C103.937 28.6747 103.918 28.1352 103.918 27.6605L103.953 25.0521ZM102.634 27.052C102.634 27.5388 102.486 27.9242 102.178 28.2244C101.87 28.5287 101.484 28.6788 101.004 28.6788C100.586 28.6788 100.247 28.5368 99.9582 28.2488C99.6696 27.9607 99.533 27.6078 99.533 27.1656C99.533 26.6504 99.6813 26.2367 99.9777 25.8999C100.274 25.5673 100.633 25.405 101.078 25.405C101.503 25.405 101.862 25.5511 102.178 25.8472C102.486 26.1393 102.634 26.5368 102.634 27.052Z" fill="#8A8D8F"/>
<path d="M100.887 29.9854C100.064 29.9854 99.3813 29.7136 98.8546 29.174C98.328 28.6345 98.0588 27.9692 98.0588 27.2025C98.0588 26.3222 98.3514 25.5758 98.9249 24.9835C99.4983 24.3953 100.22 24.0991 101.066 24.0991C101.683 24.0991 102.209 24.2736 102.623 24.6184C102.717 24.3141 102.962 24.1316 103.302 24.1316C103.586 24.1316 103.793 24.2289 103.91 24.4196C104.004 24.5697 104.051 24.7766 104.051 25.0524L104.016 27.6568C104.016 28.1315 104.035 28.667 104.074 29.2471C104.074 29.4621 103.996 29.9489 103.278 29.9489C102.869 29.9489 102.72 29.6771 102.674 29.5594C102.654 29.5107 102.639 29.458 102.623 29.3931C102.182 29.7866 101.601 29.9854 100.887 29.9854ZM101.066 24.2979C100.275 24.2979 99.5997 24.5778 99.0614 25.1255C98.523 25.6772 98.2539 26.3749 98.2539 27.1984C98.2539 27.9124 98.5035 28.525 98.9912 29.028C99.4788 29.527 100.119 29.7825 100.887 29.7825C101.62 29.7825 102.202 29.5594 102.615 29.1213L102.752 28.9793L102.783 29.1781C102.806 29.316 102.83 29.4134 102.853 29.4864C102.9 29.6081 103.009 29.7501 103.274 29.7501C103.774 29.7501 103.879 29.4823 103.879 29.2592C103.84 28.6832 103.821 28.1436 103.821 27.6609L103.856 25.0565C103.856 24.8212 103.821 24.6508 103.746 24.5372C103.665 24.4074 103.516 24.3425 103.302 24.3425C103.013 24.3425 102.83 24.5048 102.787 24.7969L102.748 25.0159L102.619 24.8902C102.217 24.4926 101.695 24.2979 101.066 24.2979ZM101.004 28.7765C100.563 28.7765 100.197 28.6264 99.8884 28.3181C99.5802 28.0098 99.432 27.6325 99.432 27.1619C99.432 26.6224 99.588 26.1843 99.904 25.8273C100.22 25.4703 100.602 25.2999 101.074 25.2999C101.527 25.2999 101.905 25.4541 102.241 25.7705C102.572 26.0869 102.732 26.5047 102.732 27.0483C102.732 27.5635 102.572 27.9733 102.245 28.2937C101.917 28.6223 101.511 28.7765 101.004 28.7765ZM101.078 25.5068C100.665 25.5068 100.329 25.6569 100.048 25.9693C99.7675 26.2897 99.6309 26.6792 99.6309 27.166C99.6309 27.5798 99.7597 27.9084 100.029 28.1761C100.298 28.4479 100.618 28.5777 101.008 28.5777C101.46 28.5777 101.823 28.4398 102.116 28.1518C102.401 27.8718 102.541 27.5108 102.541 27.0524C102.541 26.5656 102.401 26.1964 102.112 25.9206C101.815 25.6407 101.476 25.5068 101.078 25.5068Z" fill="#8A8D8F"/>
<path d="M107.39 21.4459C107.285 21.2958 107.106 21.2188 106.852 21.2188C106.657 21.2188 106.489 21.2755 106.36 21.3891C106.216 21.5108 106.142 21.6812 106.142 21.8922C106.119 26.0219 106.122 28.4194 106.154 29.0035C106.162 29.2997 106.224 29.5187 106.345 29.6688C106.427 29.7743 106.579 29.8879 106.813 29.8879C106.836 29.8879 106.856 29.8879 106.883 29.8838C107.457 29.8676 107.519 29.4579 107.519 29.2794L107.515 27.2876C107.511 25.5716 107.507 23.7988 107.531 22.0504C107.527 21.7786 107.48 21.5798 107.39 21.4459Z" fill="#8A8D8F"/>
<path d="M106.809 29.9895C106.532 29.9895 106.36 29.8516 106.267 29.7339C106.134 29.5636 106.064 29.3283 106.052 29.0078C106.021 28.4236 106.017 26.0261 106.04 21.8924C106.04 21.653 106.13 21.4542 106.294 21.3122C106.442 21.1865 106.629 21.1216 106.848 21.1216C107.137 21.1216 107.343 21.2108 107.468 21.3934C107.574 21.5435 107.624 21.7625 107.624 22.0546C107.605 23.7422 107.605 25.4541 107.609 27.1133L107.613 29.2877C107.613 29.45 107.558 29.9733 106.883 29.9936C106.86 29.9854 106.832 29.9895 106.809 29.9895ZM106.848 21.3204C106.676 21.3204 106.528 21.369 106.415 21.4664C106.294 21.5678 106.232 21.7139 106.232 21.8883C106.208 26.0221 106.212 28.4115 106.243 28.9956C106.251 29.2715 106.306 29.4662 106.411 29.6001C106.485 29.6934 106.622 29.8029 106.864 29.7826C107.316 29.7704 107.41 29.5027 107.41 29.2796L107.406 27.1052C107.402 25.4501 107.398 23.7341 107.421 22.0465C107.421 21.799 107.382 21.6206 107.304 21.5029C107.226 21.3812 107.07 21.3204 106.848 21.3204Z" fill="#8A8D8F"/>
<path d="M118.234 21.6613C118.016 21.6613 117.848 21.7221 117.731 21.8438C117.626 21.9574 117.548 22.1278 117.501 22.3753C117.302 23.4381 116.947 25.1054 116.452 27.3285L114.837 22.7444C114.782 22.6146 114.692 22.501 114.571 22.4077C114.443 22.3104 114.295 22.2617 114.127 22.2617C113.858 22.2617 113.499 22.3874 113.319 22.9716C112.625 25.0892 112.122 26.5902 111.817 27.4542L110.764 22.2089C110.69 21.856 110.448 21.6572 110.081 21.6572C109.863 21.6572 109.684 21.7262 109.555 21.8682C109.414 22.0183 109.364 22.2089 109.411 22.4158L110.628 28.1966C110.643 28.2615 110.663 28.3548 110.686 28.4765C110.788 28.9714 110.885 29.3 110.986 29.4866C111.111 29.7138 111.341 29.8355 111.669 29.8477C111.841 29.8477 111.997 29.7909 112.133 29.6732C112.258 29.5678 112.344 29.4664 112.395 29.3609C112.438 29.2757 112.488 29.158 112.547 29.0039C113.296 26.9634 113.822 25.4867 114.146 24.5212L115.808 29.1864C115.851 29.3 115.894 29.3974 115.933 29.4704C115.984 29.5678 116.069 29.657 116.183 29.73C116.3 29.8071 116.436 29.8436 116.592 29.8436C116.85 29.8436 117.029 29.7787 117.142 29.6489C117.24 29.5353 117.314 29.3649 117.357 29.1378L118.898 22.3955C118.944 22.1846 118.886 21.9899 118.734 21.8479C118.589 21.7262 118.426 21.6613 118.234 21.6613Z" fill="#8A8D8F"/>
<path d="M116.589 29.9488C116.413 29.9488 116.261 29.9042 116.128 29.819C115.999 29.7378 115.906 29.6364 115.843 29.5228C115.801 29.4417 115.758 29.3403 115.715 29.2267L114.147 24.8252C113.819 25.7866 113.323 27.174 112.637 29.0442C112.578 29.1983 112.524 29.32 112.481 29.4093C112.422 29.5269 112.329 29.6405 112.192 29.7541C112.04 29.8839 111.864 29.9488 111.669 29.9488C111.303 29.9366 111.045 29.7987 110.901 29.5391C110.792 29.3403 110.69 29.0036 110.589 28.5006C110.565 28.3829 110.546 28.2896 110.53 28.2247L109.309 22.4439C109.255 22.2046 109.317 21.9774 109.481 21.807C109.629 21.6448 109.832 21.5636 110.078 21.5636C110.487 21.5636 110.772 21.7949 110.858 22.1924L111.841 27.0888C112.153 26.1964 112.617 24.8049 113.226 22.9429C113.437 22.2654 113.881 22.164 114.127 22.164C114.314 22.164 114.482 22.2208 114.63 22.3263C114.767 22.4318 114.868 22.5575 114.931 22.7076L116.436 26.9752C116.901 24.9023 117.228 23.3526 117.412 22.3547C117.462 22.0869 117.548 21.8963 117.669 21.7705C117.806 21.6285 117.997 21.5596 118.243 21.5596C118.457 21.5596 118.644 21.6326 118.8 21.7746C118.984 21.9409 119.05 22.1721 118.995 22.4196L117.455 29.1659C117.404 29.4093 117.326 29.5918 117.217 29.7216C117.076 29.8758 116.873 29.9488 116.589 29.9488ZM110.078 21.7624C109.887 21.7624 109.731 21.8233 109.621 21.945C109.504 22.0707 109.461 22.2249 109.501 22.3993L110.718 28.1801C110.733 28.245 110.753 28.3383 110.776 28.46C110.874 28.9427 110.971 29.2632 111.065 29.4417C111.174 29.6405 111.373 29.7419 111.666 29.75C111.81 29.75 111.946 29.6973 112.063 29.5999C112.177 29.5026 112.255 29.4133 112.301 29.32C112.344 29.2348 112.395 29.1212 112.45 28.9711C113.199 26.9225 113.725 25.458 114.049 24.4926L114.139 24.2289L115.894 29.1577C115.933 29.2632 115.972 29.3525 116.011 29.4295C116.054 29.5107 116.124 29.5878 116.226 29.6486C116.327 29.7135 116.448 29.75 116.585 29.75C116.811 29.75 116.971 29.6973 117.064 29.5878C117.15 29.4863 117.217 29.3322 117.26 29.1253L118.8 22.379C118.839 22.2046 118.793 22.0464 118.664 21.9328C118.543 21.8233 118.399 21.7665 118.235 21.7665C118.044 21.7665 117.895 21.8192 117.802 21.9166C117.708 22.0139 117.642 22.1721 117.599 22.3952C117.404 23.4459 117.049 25.1132 116.546 27.3525L116.472 27.6852L114.743 22.7806C114.7 22.6711 114.619 22.5737 114.513 22.4886C114.404 22.4074 114.271 22.3628 114.127 22.3628C113.784 22.3628 113.542 22.5778 113.409 23.0038C112.719 25.1173 112.212 26.6264 111.903 27.4904L111.786 27.8231L110.663 22.233C110.601 21.9247 110.398 21.7624 110.078 21.7624Z" fill="#8A8D8F"/>
<path d="M123.997 28.1312C123.934 28.1312 123.833 28.1474 123.505 28.2975C123.146 28.5288 122.741 28.6423 122.3 28.6423C121.859 28.6423 121.508 28.5085 121.227 28.2326C121.001 28.0095 120.864 27.762 120.81 27.4821C121.102 27.4821 121.422 27.4781 121.773 27.4781C122.655 27.47 123.185 27.4781 123.712 27.4619C124.164 27.4537 124.449 27.3685 124.594 27.1982C124.734 27.0359 124.8 26.7803 124.8 26.4152C124.8 25.8351 124.551 25.3118 124.055 24.8534C123.568 24.4031 122.967 24.1719 122.272 24.1719C121.473 24.1719 120.79 24.4802 120.236 25.0846C119.686 25.6891 119.409 26.4152 119.409 27.2468C119.425 27.973 119.706 28.6018 120.244 29.117C120.778 29.6322 121.434 29.8918 122.187 29.8918C123.014 29.8918 123.696 29.7174 124.203 29.3766C124.48 29.2103 124.621 29.0074 124.621 28.764C124.621 28.6058 124.555 28.4598 124.43 28.3259C124.305 28.1921 124.157 28.1312 123.997 28.1312ZM120.856 26.4315C120.931 26.1799 121.075 25.9568 121.293 25.7499C121.574 25.4862 121.91 25.3564 122.319 25.3564C122.643 25.3564 122.912 25.4619 123.146 25.6729C123.353 25.8595 123.462 26.0947 123.482 26.3828C123.232 26.3949 121.648 26.4193 120.856 26.4315Z" fill="#8A8D8F"/>
<path d="M122.19 29.9975C121.41 29.9975 120.735 29.7297 120.181 29.1983C119.624 28.6628 119.331 28.0097 119.315 27.2551C119.315 26.3951 119.604 25.6446 120.17 25.0199C120.743 24.3911 121.449 24.0747 122.276 24.0747C122.998 24.0747 123.622 24.3141 124.125 24.7806C124.64 25.2593 124.902 25.8069 124.902 26.4154C124.902 26.8049 124.824 27.0848 124.668 27.2673C124.5 27.462 124.196 27.5553 123.712 27.5635C123.369 27.5716 123.021 27.5756 122.577 27.5756C122.343 27.5756 122.077 27.5756 121.773 27.5797C121.469 27.5837 121.192 27.5837 120.934 27.5837C120.997 27.7947 121.114 27.9854 121.293 28.1598C121.555 28.4154 121.886 28.5411 122.3 28.5411C122.721 28.5411 123.111 28.4316 123.454 28.2085C123.79 28.0584 123.907 28.03 123.997 28.03C124.184 28.03 124.355 28.1071 124.504 28.2571C124.652 28.4072 124.726 28.5817 124.726 28.7683C124.726 29.0482 124.57 29.2835 124.262 29.466C123.735 29.819 123.041 29.9975 122.19 29.9975ZM122.276 24.2775C121.508 24.2775 120.845 24.5737 120.31 25.1578C119.78 25.742 119.51 26.4438 119.51 27.2511C119.526 27.9448 119.799 28.5492 120.314 29.0482C120.833 29.5431 121.461 29.7946 122.19 29.7946C123.002 29.7946 123.661 29.6283 124.153 29.2957C124.402 29.1456 124.523 28.9711 124.523 28.7683C124.523 28.6385 124.469 28.5127 124.359 28.4032C124.25 28.2896 124.129 28.2328 123.993 28.2328C123.946 28.2328 123.848 28.249 123.54 28.391C123.177 28.6263 122.756 28.744 122.296 28.744C121.832 28.744 121.457 28.602 121.157 28.3099C120.911 28.0705 120.767 27.8069 120.712 27.5026L120.689 27.3809H120.806C121.098 27.3809 121.418 27.3768 121.769 27.3768C122.073 27.3728 122.339 27.3728 122.573 27.3728C123.017 27.3728 123.361 27.3687 123.704 27.3606C124.125 27.3525 124.391 27.2754 124.515 27.1294C124.64 26.9874 124.699 26.7521 124.699 26.4154C124.699 25.8678 124.461 25.3688 123.989 24.9307C123.525 24.4966 122.947 24.2775 122.276 24.2775ZM120.724 26.5371L120.763 26.4032C120.841 26.1355 120.993 25.8962 121.227 25.6771L121.246 25.6609C121.527 25.3931 121.882 25.2552 122.319 25.2552C122.666 25.2552 122.959 25.3647 123.209 25.596C123.439 25.8029 123.556 26.0584 123.575 26.3748L123.583 26.4763L123.486 26.4803C123.212 26.4925 121.406 26.5209 120.856 26.5331L120.724 26.5371ZM122.323 25.458C121.937 25.458 121.625 25.5797 121.36 25.8231L121.34 25.8394C121.188 25.9854 121.071 26.1477 120.997 26.3262C121.601 26.3181 122.939 26.2937 123.376 26.2815C123.345 26.0706 123.248 25.8962 123.088 25.7461C122.869 25.5554 122.62 25.458 122.323 25.458Z" fill="#8A8D8F"/>
<path d="M90.3183 6.31856C90.369 6.19686 90.447 6.11167 90.5523 6.06299C90.6187 6.03054 90.685 6.01025 90.7513 6.01025C90.802 6.01025 90.8488 6.01837 90.8995 6.03459L91.1297 6.17658C91.2467 6.20903 91.2974 6.29828 91.3442 6.40781C91.395 6.51734 91.395 6.63093 91.3442 6.74046C91.0322 7.51934 90.5445 8.61465 90.369 9.18259V17.6651C90.369 17.7868 90.3261 17.8882 90.2403 17.9815C90.1545 18.0708 90.0491 18.1154 89.9243 18.1154H89.6161C89.4991 18.1154 89.4016 18.0708 89.3119 17.9815C89.226 17.8923 89.1831 17.7868 89.1831 17.6651V10.6105C89.1831 10.6024 87.9036 12.4401 87.7086 12.6592C87.6422 12.7444 87.5525 12.8012 87.455 12.7606C87.3692 12.7241 87.0961 12.4644 86.9089 12.2576C86.7294 12.0872 86.9206 11.8478 87.0025 11.7464C87.4979 11.1988 88.7618 9.38136 89.2065 8.65116C89.6512 7.92501 90.0218 7.08933 90.3183 6.31856Z" fill="#8A8D8F"/>
<path d="M89.928 18.2697H89.6198C89.4638 18.2697 89.3273 18.2089 89.2141 18.0912C89.101 17.9736 89.0425 17.8316 89.0425 17.6693V11.0732C88.5198 11.8155 87.9541 12.6106 87.8215 12.7648C87.7084 12.9108 87.5523 12.9676 87.4041 12.9068C87.2675 12.8459 86.9399 12.5173 86.8072 12.3672C86.6863 12.2537 86.5927 12.0265 86.893 11.6533C87.3846 11.1056 88.6368 9.3085 89.0854 8.57424C89.4638 7.95356 89.8344 7.17874 90.1855 6.26598V6.26192C90.2479 6.10777 90.3532 5.99418 90.4936 5.92522C90.638 5.8522 90.794 5.84003 90.9461 5.89277L91.1919 6.03881C91.3518 6.0956 91.426 6.2173 91.4806 6.34711C91.5469 6.49721 91.5469 6.65948 91.4806 6.80958C91.3831 7.04892 91.2699 7.32883 91.149 7.60874C90.8993 8.20913 90.6419 8.82575 90.517 9.21114V17.6693C90.517 17.8316 90.4585 17.9736 90.3454 18.0912C90.2284 18.2089 90.0879 18.2697 89.928 18.2697ZM89.1751 10.4484C89.1907 10.4484 89.2102 10.4525 89.2336 10.4606L89.3351 10.493V17.6653C89.3351 17.7464 89.3624 17.8113 89.4209 17.8722C89.4794 17.933 89.5418 17.9614 89.6198 17.9614H89.928C90.0138 17.9614 90.0801 17.933 90.1386 17.8722C90.1972 17.8113 90.2245 17.7464 90.2245 17.6653L90.2323 9.13406C90.3571 8.7365 90.6224 8.0996 90.8798 7.48299C90.9969 7.20308 91.1139 6.92722 91.2114 6.68382C91.2465 6.60674 91.2465 6.54184 91.2153 6.47287C91.1724 6.37145 91.1412 6.339 91.0905 6.32277L91.0554 6.30655L90.8252 6.16456C90.8213 6.16456 90.7862 6.16051 90.7511 6.16051C90.7082 6.16051 90.6653 6.17268 90.6185 6.19702C90.5404 6.23353 90.4897 6.29032 90.4546 6.37551C90.0957 7.30449 89.7212 8.09555 89.3311 8.73245C88.8747 9.47482 87.6069 11.2963 87.1115 11.848C86.9321 12.0711 86.9867 12.1238 87.0101 12.1441C87.2246 12.3794 87.4587 12.5944 87.5133 12.6188C87.5328 12.6269 87.5757 12.5863 87.5952 12.562C87.7396 12.3997 88.4729 11.3571 88.824 10.8582C89.062 10.5255 89.1127 10.4484 89.1751 10.4484Z" fill="#8A8D8F"/>
<path d="M99.2124 16.5453C98.4752 15.8962 97.2386 14.7644 96.4467 13.6285C96.1112 13.1458 96.513 13.1336 96.7158 13.1336H99.0915C99.2242 13.1336 99.3334 13.02 99.3334 12.8821V12.3872C99.3334 12.2492 99.2242 12.1357 99.0915 12.1357H96.2165C96.0839 12.1357 95.9747 12.0221 95.9747 11.8841V10.7969H97.4804C97.9914 10.7969 98.405 10.3669 98.405 9.83551V7.17433C98.405 6.6429 97.9914 6.21289 97.4804 6.21289H93.1972C92.6862 6.21289 92.2727 6.6429 92.2727 7.17433V9.83551C92.2727 10.3669 92.6862 10.7969 93.1972 10.7969H94.7029L94.699 11.8841C94.699 12.0221 94.5898 12.1357 94.4572 12.1357H91.7616C91.629 12.1357 91.5198 12.2492 91.5198 12.3872V12.8821C91.5198 13.02 91.629 13.1336 91.7616 13.1336H93.6575C93.8369 13.1336 94.1919 13.093 94.227 13.2756C94.3324 13.7867 92.3039 15.9733 91.4964 16.5169C91.3052 16.6426 91.4105 16.8049 91.4105 16.8049L91.7304 17.3323C91.8006 17.4377 91.9411 17.4743 92.0503 17.4094C92.9943 16.8414 94.7029 14.7117 94.7029 14.9469V17.8272C94.7029 17.9651 94.8122 18.0787 94.9448 18.0787H95.7367C95.8693 18.0787 95.9786 17.9651 95.9786 17.8272V14.8131C96.5715 15.4094 97.9524 16.9347 98.5922 17.5797C98.6936 17.6811 98.8653 17.6406 98.9433 17.5189L99.2983 16.9063C99.3763 16.7806 99.3217 16.6426 99.2124 16.5453ZM93.9306 9.65296C93.6848 9.65296 93.4819 9.36088 93.4819 9.10125V7.8234C93.4819 7.56782 93.6809 7.35688 93.9306 7.35688H96.7549C97.0006 7.35688 97.2035 7.56377 97.2035 7.8234V9.10125C97.2035 9.35682 97.0045 9.65296 96.7549 9.65296H93.9306Z" fill="#8A8D8F"/>
<path d="M95.7364 18.229H94.9445C94.73 18.229 94.5545 18.0465 94.5545 17.8233V15.2271C94.4218 15.3569 94.2424 15.5516 94.0746 15.7301C93.4895 16.3508 92.6859 17.2027 92.1242 17.5394C91.9525 17.6408 91.7263 17.588 91.6131 17.4177L91.2894 16.8862C91.2776 16.87 91.2191 16.7686 91.2464 16.6347C91.2581 16.5658 91.3011 16.4684 91.422 16.3913C92.3465 15.7706 94.1644 13.6693 94.0902 13.3082C94.0512 13.2758 93.8328 13.2798 93.7509 13.2839H93.6611H91.7653C91.5507 13.2839 91.3752 13.1013 91.3752 12.8782V12.3833C91.3752 12.1602 91.5507 11.9776 91.7653 11.9776H94.4608C94.5154 11.9776 94.5584 11.933 94.5584 11.8762L94.5623 10.9391H93.2047C92.6157 10.9391 92.1359 10.4402 92.1359 9.8276V7.17452C92.1359 6.56196 92.6157 6.06299 93.2047 6.06299H97.488C98.077 6.06299 98.5568 6.56196 98.5568 7.17452V9.83571C98.5568 10.4483 98.077 10.9472 97.488 10.9472H96.1265V11.8843C96.1265 11.9411 96.1695 11.9858 96.2241 11.9858H99.0991C99.3136 11.9858 99.4892 12.1683 99.4892 12.3914V12.8863C99.4892 13.1095 99.3136 13.292 99.0991 13.292H96.7234C96.5244 13.292 96.4776 13.3204 96.4698 13.3326C96.4698 13.3326 96.4659 13.3894 96.5713 13.5476C97.4217 14.7686 98.8455 16.0222 99.3136 16.4359C99.4931 16.5942 99.5399 16.8213 99.4268 16.9958L99.0718 17.6043C99.0015 17.7097 98.8962 17.7787 98.7792 17.7949C98.6739 17.8071 98.5685 17.7706 98.4944 17.6976C98.1667 17.369 97.644 16.8051 97.1369 16.2615C96.7624 15.8599 96.4074 15.4786 96.1304 15.1865V17.8355C96.1226 18.0505 95.951 18.229 95.7364 18.229ZM94.6832 14.7727C94.7066 14.7727 94.7261 14.7768 94.7495 14.7889L94.8392 14.8295L94.847 14.9471V17.8274C94.847 17.8842 94.8899 17.9288 94.9445 17.9288H95.7364C95.7911 17.9288 95.834 17.8842 95.834 17.8274V14.4563L96.0836 14.7037C96.3762 14.9958 96.8482 15.5029 97.3475 16.0384C97.8508 16.582 98.3735 17.1418 98.6973 17.4663C98.709 17.4785 98.7285 17.4826 98.748 17.4826C98.7792 17.4785 98.8104 17.4582 98.826 17.4339L99.181 16.8254C99.2239 16.7564 99.1498 16.6834 99.1264 16.6591C98.6544 16.2412 97.211 14.9674 96.3372 13.718C96.2826 13.6368 96.1109 13.3934 96.2124 13.1865C96.3138 12.9837 96.5947 12.9837 96.7273 12.9837H99.103C99.1576 12.9837 99.2005 12.9391 99.2005 12.8823V12.3874C99.2005 12.3306 99.1576 12.286 99.103 12.286H96.228C96.0134 12.286 95.8379 12.1034 95.8379 11.8803V10.6389H97.4919C97.921 10.6389 98.2682 10.2779 98.2682 9.83165V7.17452C98.2682 6.72829 97.921 6.36724 97.4919 6.36724H93.2086C92.7795 6.36724 92.4323 6.72829 92.4323 7.17452V9.83571C92.4323 10.2819 92.7795 10.643 93.2086 10.643H94.8626L94.8548 11.8843C94.8548 12.1075 94.6793 12.286 94.4647 12.286H91.7692C91.7146 12.286 91.6716 12.3306 91.6716 12.3874V12.8823C91.6716 12.9391 91.7146 12.9837 91.7692 12.9837H93.747C93.9771 12.9756 94.3204 12.9675 94.3789 13.2474C94.5115 13.8883 92.3543 16.1317 91.5819 16.651C91.5195 16.6915 91.5312 16.7159 91.539 16.728L91.8589 17.2554C91.8823 17.2919 91.9369 17.3081 91.9798 17.2797C92.5065 16.9633 93.2944 16.1276 93.8679 15.5191C94.4218 14.9269 94.5701 14.7727 94.6832 14.7727ZM96.7546 9.80326H93.9303C93.5909 9.80326 93.3374 9.4341 93.3374 9.10145V7.82359C93.3374 7.48283 93.6026 7.20697 93.9303 7.20697H96.7546C97.0823 7.20697 97.3475 7.48283 97.3475 7.82359V9.10145C97.3475 9.4341 97.094 9.80326 96.7546 9.80326ZM93.9303 7.51123C93.7665 7.51123 93.6299 7.65321 93.6299 7.82359V9.10145C93.6299 9.27589 93.7704 9.49901 93.9303 9.49901H96.7546C96.9145 9.49901 97.055 9.27589 97.055 9.10145V7.82359C97.055 7.64915 96.9184 7.51123 96.7546 7.51123H93.9303Z" fill="#8A8D8F"/>
<path d="M71.7889 10.7849C71.629 10.6876 71.3871 10.8174 71.2935 10.9837C70.5094 12.436 69.9242 13.2474 68.7657 14.1885C68.6018 14.3224 68.6642 14.6347 68.8047 14.793L69.3469 15.3082C69.4912 15.4704 69.8423 15.4299 69.975 15.2595C70.802 14.2007 71.4183 12.8295 71.8903 11.2109C71.9449 11.0405 71.9722 10.8945 71.7889 10.7849Z" fill="#8A8D8F"/>
<path d="M69.62 15.564C69.4678 15.564 69.3313 15.5113 69.2416 15.4139L68.7071 14.9068C68.5784 14.7649 68.5121 14.5661 68.5238 14.3835C68.5316 14.2497 68.5862 14.1401 68.6759 14.0671C69.8618 13.1057 70.4235 12.2822 71.1647 10.907C71.2388 10.769 71.3793 10.6595 71.5314 10.6149C71.6484 10.5824 71.7655 10.5946 71.8591 10.6514C72.1517 10.8299 72.0737 11.1057 72.0307 11.2518C71.5275 12.984 70.8917 14.3227 70.0881 15.3531C69.9905 15.4748 69.8267 15.5559 69.6434 15.56C69.6395 15.564 69.6317 15.564 69.62 15.564ZM71.6641 10.9029C71.6445 10.9029 71.625 10.907 71.6133 10.911C71.5392 10.9313 71.4612 10.9921 71.4261 11.057C70.6654 12.4688 70.0842 13.3126 68.8593 14.3065C68.8359 14.3267 68.8203 14.3592 68.8203 14.4038C68.8125 14.4971 68.8554 14.6148 68.9178 14.6837L69.4522 15.1908C69.4951 15.2354 69.5614 15.2557 69.6395 15.2517C69.737 15.2476 69.8267 15.2111 69.8696 15.1543C70.6459 14.1564 71.2662 12.8501 71.7577 11.1585C71.8084 10.984 71.7967 10.9556 71.7187 10.911C71.6992 10.907 71.6836 10.9029 71.6641 10.9029Z" fill="#8A8D8F"/>
<path d="M78.3505 13.5154H78.3271C78.0423 13.5154 77.9721 13.7588 77.9682 14.055C77.9448 15.7507 77.8278 16.1158 77.1022 16.1847C76.5717 16.2375 75.3585 16.2253 74.8903 16.1847C74.2818 16.132 74.1687 15.7912 74.1687 15.199V10.7042C74.1687 10.4486 73.9697 10.2417 73.724 10.2417H73.3339C73.0881 10.2417 72.8892 10.4486 72.8892 10.7042V15.8156C72.8892 17.4058 73.4353 17.5113 74.5393 17.5843C75.2219 17.6289 76.6458 17.6736 77.4377 17.5843C79.0995 17.3936 79.0332 16.4809 78.7172 13.9779C78.6899 13.7629 78.5572 13.5154 78.3505 13.5154Z" fill="#8A8D8F"/>
<path d="M76.1933 17.7911C75.5731 17.7911 74.9372 17.7667 74.5276 17.7383C73.3885 17.6612 72.741 17.5355 72.741 15.8195V10.704C72.741 10.3633 73.0062 10.0874 73.3339 10.0874H73.724C74.0517 10.0874 74.317 10.3633 74.317 10.704V15.1988C74.317 15.8073 74.4496 15.9939 74.9021 16.0345C75.3468 16.071 76.5522 16.0872 77.0866 16.0345C77.6601 15.9777 77.7966 15.787 77.82 14.0508C77.8278 13.4829 78.1009 13.3612 78.3232 13.3612H78.3466C78.6314 13.3612 78.8187 13.6613 78.8577 13.9575C79.0683 15.6207 79.1619 16.5903 78.7328 17.1582C78.4871 17.4827 78.0892 17.6612 77.4494 17.7343C77.1139 17.7748 76.6575 17.7911 76.1933 17.7911ZM73.3339 10.3917C73.1701 10.3917 73.0335 10.5296 73.0335 10.704V15.8154C73.0335 17.2718 73.4704 17.361 74.5471 17.43C75.2493 17.4787 76.6536 17.5193 77.4221 17.43C77.98 17.3651 78.3154 17.2231 78.5105 16.9675C78.8694 16.4929 78.7719 15.5761 78.5729 13.994C78.5534 13.8358 78.4598 13.6654 78.3544 13.6654H78.331C78.2491 13.6654 78.1243 13.6654 78.1204 14.0548C78.097 15.6735 78.0112 16.2495 77.1217 16.3347C76.5717 16.3874 75.339 16.3753 74.8826 16.3347C74.0946 16.2657 74.0283 15.71 74.0283 15.1948V10.704C74.0283 10.5336 73.8956 10.3917 73.7279 10.3917H73.3339Z" fill="#8A8D8F"/>
<path d="M82.1418 14.0384C81.4397 13.008 80.2109 11.3367 79.0991 10.4036C78.9509 10.2779 78.7714 10.2089 78.6232 10.3347C78.5218 10.5172 78.514 10.6268 78.6271 10.8093C79.3566 11.9492 80.2382 13.5881 80.8311 14.8376C80.9403 15.0688 81.2212 15.1459 81.4241 14.9999L82.0326 14.6307C82.2238 14.5009 82.2745 14.2332 82.1418 14.0384Z" fill="#8A8D8F"/>
<path d="M81.2017 15.231C81.1549 15.231 81.1081 15.2229 81.0613 15.2107C80.9052 15.1702 80.7765 15.0566 80.7024 14.9065C80.164 13.7747 79.2746 12.0993 78.5061 10.8944C78.3462 10.6429 78.3813 10.4644 78.4944 10.2616L78.5296 10.221C78.7129 10.0628 78.9509 10.0912 79.1888 10.29C80.3435 11.2595 81.6074 12.9998 82.2589 13.9532C82.3447 14.0789 82.3798 14.2331 82.3525 14.3872C82.3252 14.5414 82.2433 14.6753 82.1184 14.7645L81.5021 15.1377C81.4163 15.1986 81.3109 15.231 81.2017 15.231ZM78.7363 10.4401C78.6739 10.5618 78.6778 10.6105 78.7519 10.7281C79.5282 11.941 80.4215 13.6367 80.9676 14.7726C81.0028 14.8456 81.0652 14.8943 81.1354 14.9146C81.2095 14.9349 81.2836 14.9227 81.346 14.8781L81.9624 14.5049C82.0131 14.4684 82.0521 14.4035 82.0638 14.3345C82.0755 14.2615 82.0599 14.1925 82.0209 14.1317C81.3772 13.1905 80.1328 11.4705 79.0055 10.5253C78.8923 10.4279 78.8026 10.3995 78.7363 10.4401Z" fill="#8A8D8F"/>
<path d="M76.2751 8.91861C76.902 8.91861 77.4102 8.39008 77.4102 7.73811C77.4102 7.08614 76.902 6.55762 76.2751 6.55762C75.6481 6.55762 75.1399 7.08614 75.1399 7.73811C75.1399 8.39008 75.6481 8.91861 76.2751 8.91861Z" fill="#8A8D8F"/>
<path d="M76.2749 9.0689C75.5688 9.0689 74.9954 8.47257 74.9954 7.73831C74.9954 7.00405 75.5688 6.40771 76.2749 6.40771C76.9809 6.40771 77.5544 7.00405 77.5544 7.73831C77.5544 8.47257 76.977 9.0689 76.2749 9.0689ZM76.2749 6.71197C75.7287 6.71197 75.2879 7.17443 75.2879 7.73831C75.2879 8.30625 75.7326 8.76465 76.2749 8.76465C76.8171 8.76465 77.2618 8.30219 77.2618 7.73831C77.2618 7.17037 76.8171 6.71197 76.2749 6.71197Z" fill="#8A8D8F"/>
</g>
<defs>
<linearGradient id="paint0_linear_1450_29025" x1="3.37087" y1="25.0163" x2="19.5382" y2="4.34624" gradientUnits="userSpaceOnUse">
<stop stop-color="#3A5DAE"/>
<stop offset="1" stop-color="#00AEC7"/>
</linearGradient>
<linearGradient id="paint1_linear_1450_29025" x1="17.1345" y1="50.5345" x2="45.8879" y2="13.7732" gradientUnits="userSpaceOnUse">
<stop stop-color="#3A5DAE"/>
<stop offset="1" stop-color="#00AEC7"/>
</linearGradient>
<linearGradient id="paint2_linear_1450_29025" x1="38.6754" y1="40.887" x2="56.7131" y2="17.8256" gradientUnits="userSpaceOnUse">
<stop stop-color="#3A5DAE"/>
<stop offset="1" stop-color="#00AEC7"/>
</linearGradient>
<linearGradient id="paint3_linear_1450_29025" x1="12.3429" y1="24.4438" x2="30.3806" y2="1.38253" gradientUnits="userSpaceOnUse">
<stop stop-color="#3A5DAE"/>
<stop offset="1" stop-color="#00AEC7"/>
</linearGradient>
<linearGradient id="paint4_linear_1450_29025" x1="34.7426" y1="37.3045" x2="49.6171" y2="18.2874" gradientUnits="userSpaceOnUse">
<stop stop-color="#3A5DAE"/>
<stop offset="1" stop-color="#00AEC7"/>
</linearGradient>
<linearGradient id="paint5_linear_1450_29025" x1="-4.60798" y1="28.3427" x2="15.3709" y2="2.79975" gradientUnits="userSpaceOnUse">
<stop stop-color="#3A5DAE"/>
<stop offset="1" stop-color="#00AEC7"/>
</linearGradient>
<linearGradient id="paint6_linear_1450_29025" x1="22.1951" y1="37.9257" x2="38.9585" y2="16.4936" gradientUnits="userSpaceOnUse">
<stop stop-color="#3A5DAE"/>
<stop offset="1" stop-color="#00AEC7"/>
</linearGradient>
<linearGradient id="paint7_linear_1450_29025" x1="4.77822" y1="34.371" x2="33.1658" y2="-1.92271" gradientUnits="userSpaceOnUse">
<stop stop-color="#3A5DAE"/>
<stop offset="1" stop-color="#00AEC7"/>
</linearGradient>
<linearGradient id="paint8_linear_1450_29025" x1="13.485" y1="38.5299" x2="37.4801" y2="7.85206" gradientUnits="userSpaceOnUse">
<stop stop-color="#3A5DAE"/>
<stop offset="1" stop-color="#00AEC7"/>
</linearGradient>
<clipPath id="clip0_1450_29025">
<rect width="125" height="36" fill="white"/>
</clipPath>
</defs>
</svg>
