<svg width="178" height="23" viewBox="0 0 178 23" fill="none" xmlns="http://www.w3.org/2000/svg">
<path d="M7.6075 12.4416C8.40702 12.4416 9.05324 11.7941 9.05324 10.9996V6.90437C9.05324 6.10691 8.40401 5.46234 7.6075 5.46234C6.80798 5.46234 6.16175 6.1099 6.16175 6.90437V10.9996C6.15875 11.7941 6.80798 12.4416 7.6075 12.4416Z" fill="url(#paint0_linear_194_1138)"/>
<path d="M30.8417 9.14387C31.6413 9.14387 32.2875 8.4963 32.2875 7.70184V6.82343C32.2875 6.02597 31.6383 5.38141 30.8417 5.38141C30.0422 5.38141 29.396 6.02897 29.396 6.82343V7.70184C29.396 8.4963 30.0452 9.14387 30.8417 9.14387Z" fill="url(#paint1_linear_194_1138)"/>
<path d="M37.0515 13.6348C37.851 13.6348 38.4972 12.9873 38.4972 12.1928C38.4972 11.3954 37.848 10.7508 37.0515 10.7508C36.2519 10.7508 35.6057 11.3984 35.6057 12.1928C35.6057 12.9873 36.2519 13.6348 37.0515 13.6348Z" fill="url(#paint2_linear_194_1138)"/>
<path d="M19.1014 2.88405C19.9009 2.88405 20.5471 2.23649 20.5471 1.44203C20.5471 0.644565 19.8979 0 19.1014 0C18.3019 0 17.6556 0.647563 17.6556 1.44203C17.6556 2.23949 18.3049 2.88405 19.1014 2.88405Z" fill="url(#paint3_linear_194_1138)"/>
<path d="M30.8417 18.2157C31.6413 18.2157 32.2875 17.5682 32.2875 16.7737V12.2828C32.2875 11.4853 31.6383 10.8407 30.8417 10.8407C30.0422 10.8407 29.396 11.4883 29.396 12.2828V16.7707C29.396 17.5682 30.0452 18.2157 30.8417 18.2157Z" fill="url(#paint4_linear_194_1138)"/>
<path d="M1.44574 14.9449C2.24526 14.9449 2.89149 14.2973 2.89149 13.5029V10.6578C2.89149 9.86034 2.24226 9.21577 1.44574 9.21577C0.649233 9.21577 0 9.86334 0 10.6578V13.5029C0 14.3003 0.649233 14.9449 1.44574 14.9449Z" fill="url(#paint5_linear_194_1138)"/>
<path d="M19.2606 22.9435C20.0601 22.9435 20.7063 22.296 20.7063 21.5015V16.4079C20.7063 15.6105 20.0571 14.9659 19.2606 14.9659C18.4611 14.9659 17.8148 15.6135 17.8148 16.4079V21.5015C17.8118 22.296 18.4611 22.9435 19.2606 22.9435Z" fill="url(#paint6_linear_194_1138)"/>
<path d="M7.6075 18.2457C8.40702 18.2457 9.05324 17.5981 9.05324 16.8037V15.8743C9.05324 15.0768 8.40401 14.4323 7.6075 14.4323C6.80798 14.4323 6.16175 15.0798 6.16175 15.8743V16.8037C6.15875 17.6011 6.80798 18.2457 7.6075 18.2457Z" fill="url(#paint7_linear_194_1138)"/>
<path d="M25.1127 2.44939H24.8151C24.4304 2.44939 24.0877 2.5873 23.8533 2.80016L19.2155 5.64224C19.2065 5.64224 19.1975 5.64224 19.1884 5.64224L14.5296 2.77917C14.5086 2.76118 14.4905 2.74619 14.4695 2.72821L14.4605 2.72221L14.4545 2.71921C14.226 2.55132 13.9224 2.4464 13.5858 2.4464H13.2882C12.5669 2.4464 11.9838 2.91108 11.9838 3.48669V19.6158C11.9838 20.1914 12.5669 20.6561 13.2882 20.6561H13.5738C14.2952 20.6561 14.8783 20.1914 14.8783 19.6158V8.67919C14.8813 8.67919 14.8843 8.67619 14.8843 8.67319C14.8843 8.17253 15.263 7.69585 15.8611 7.54295C16.7178 7.3271 17.5113 7.72883 17.7187 8.32842V8.33142V11.857C17.7187 12.4327 18.3018 12.8973 19.0231 12.8973H19.3087C20.03 12.8973 20.6131 12.4327 20.6131 11.857V8.67919H20.6162C20.6192 8.67919 20.6222 8.67619 20.6222 8.67319C20.6222 8.16953 21.0009 7.69285 21.602 7.54295C22.5999 7.29412 23.5137 7.88173 23.5137 8.63721V8.67919H23.5197V19.6188C23.5197 20.1944 24.1028 20.6591 24.8241 20.6591H25.1097C25.8311 20.6591 26.4142 20.1944 26.4142 19.6188V3.48969C26.4172 2.91408 25.8341 2.44939 25.1127 2.44939Z" fill="url(#paint8_linear_194_1138)"/>
<path d="M102.333 7.18948C102.178 6.04906 102.059 5.3363 101.96 5.0202L101.929 4.94583C101.774 4.69791 101.469 4.56156 101.022 4.53057C100.885 4.51817 100.717 4.52437 100.531 4.54916L100.456 4.56775C100.077 4.7289 99.7603 5.08838 99.4993 5.67718C99.1948 6.38375 98.8096 7.30724 98.3373 8.45386C97.8651 9.59428 97.4549 10.5798 97.1007 11.4103C96.7838 12.154 96.4607 12.873 96.1376 13.5734C96.0817 13.4432 96.0319 13.3254 95.9947 13.2077L93.0431 5.54083C92.7821 4.90244 92.3906 4.57395 91.8748 4.56156C91.589 4.56156 91.3218 4.61734 91.067 4.7351C90.688 4.90864 90.5575 5.17515 90.514 5.38588C90.5078 5.42927 90.4518 5.83213 90.3338 6.59448L89.8367 9.99095C89.4017 12.9598 89.091 14.9493 88.9108 15.9224C88.8735 16.2261 88.9605 16.4988 89.1531 16.7157C89.352 16.9388 89.6254 17.0504 89.9672 17.0504C90.5699 17.0504 90.9552 16.7467 91.0546 16.1951C91.1043 15.9038 91.2037 15.2282 91.3404 14.1684L92.0985 8.38568L93.0679 10.9268C93.8819 13.0589 94.5033 14.6518 94.9134 15.6621C95.0315 15.9596 95.162 16.1765 95.3111 16.3252C95.4913 16.505 95.7337 16.5918 96.0382 16.5918C96.4483 16.6289 97.0013 16.443 97.3679 15.6311L100.431 8.41048C100.531 9.27199 100.649 10.3628 100.792 11.6892C101.003 13.6539 101.177 15.1538 101.308 16.1455C101.395 16.7343 101.774 17.0628 102.383 17.0628C102.737 17.0628 103.01 16.9636 103.197 16.7653C103.383 16.567 103.464 16.2881 103.439 15.91L102.917 11.7822C102.687 9.8422 102.488 8.30511 102.333 7.18948Z" fill="#8A8D8F"/>
<path d="M102.401 17.2242C101.718 17.2242 101.27 16.8399 101.171 16.1767C101.041 15.1664 100.867 13.6665 100.655 11.7142C100.543 10.6729 100.444 9.77424 100.357 9.02429L97.5235 15.6995C97.0574 16.7283 96.3304 16.7779 96.0383 16.7531C95.709 16.7531 95.4232 16.6416 95.2181 16.437C95.0503 16.2697 94.9136 16.0342 94.7831 15.7181C94.3668 14.6954 93.7454 13.1025 92.9376 10.9766L92.1857 9.01189L91.5084 14.1872C91.3592 15.3152 91.266 15.9412 91.2163 16.2201C91.0983 16.8461 90.6446 17.1994 89.9735 17.1994C89.5821 17.1994 89.2714 17.0692 89.0415 16.8151C88.8178 16.5672 88.7183 16.2449 88.7618 15.8978C88.9482 14.8937 89.2589 12.9042 89.6877 9.96018L90.3091 5.72078C90.3402 5.49766 90.3588 5.3737 90.365 5.35511C90.4334 5.00802 90.6571 4.74771 91.0051 4.58656C91.2785 4.4626 91.5705 4.40062 91.8812 4.40062C92.4653 4.41922 92.9065 4.7787 93.1924 5.47907L96.1502 13.1521C96.1502 13.1583 96.1564 13.1707 96.1564 13.1769C96.4298 12.5757 96.7032 11.9621 96.9642 11.3485C97.3184 10.518 97.7285 9.53252 98.2008 8.3921C98.673 7.24548 99.0583 6.32199 99.3628 5.61542C99.6424 4.98943 99.9842 4.59896 100.407 4.41922L100.5 4.39443C100.711 4.36344 100.885 4.35724 101.041 4.36963C101.544 4.40062 101.886 4.56177 102.066 4.85927L102.109 4.95224C102.215 5.29933 102.333 6.01829 102.488 7.16491C102.644 8.28054 102.843 9.81763 103.091 11.77L103.613 15.8978C103.644 16.3193 103.545 16.6416 103.333 16.8771C103.116 17.1064 102.805 17.2242 102.401 17.2242ZM100.537 7.81569L100.606 8.3983C100.705 9.25981 100.823 10.3506 100.972 11.677C101.183 13.6294 101.357 15.1293 101.488 16.1333C101.563 16.6416 101.879 16.9143 102.408 16.9143C102.718 16.9143 102.954 16.8337 103.11 16.6663C103.265 16.499 103.327 16.2573 103.309 15.9288L102.787 11.8134C102.538 9.86101 102.339 8.32392 102.184 7.20829C102.029 6.07407 101.91 5.3675 101.817 5.0576L101.792 5.00182C101.674 4.81589 101.42 4.70432 101.016 4.67953C100.879 4.66713 100.724 4.67333 100.556 4.69813L100.506 4.71672C100.183 4.85307 99.8972 5.19396 99.6486 5.73938C99.3441 6.44595 98.9589 7.36944 98.4866 8.50986C98.0144 9.65028 97.6042 10.6358 97.2501 11.4725C96.9394 12.2038 96.61 12.9352 96.2869 13.6418L96.1378 13.9578L96.001 13.6356C95.9389 13.4992 95.8954 13.3752 95.8519 13.2575L92.9003 5.59683C92.658 5.02042 92.3224 4.72911 91.875 4.71672C91.6202 4.71672 91.3655 4.7725 91.1355 4.87786C90.8808 4.99562 90.7192 5.17537 90.6695 5.41709C90.6695 5.42948 90.6509 5.55344 90.6198 5.77037L89.9984 10.0098C89.5696 12.9538 89.2527 14.9495 89.0725 15.9474C89.0415 16.1953 89.116 16.4308 89.2776 16.6106C89.4454 16.7965 89.6753 16.8895 89.9735 16.8895C90.4955 16.8895 90.8249 16.6354 90.9118 16.1643C90.9616 15.8916 91.0548 15.2532 91.1977 14.1438L92.0366 7.75371L93.2234 10.8713C94.0312 12.991 94.6526 14.5838 95.069 15.6065C95.1808 15.8854 95.2989 16.0837 95.4356 16.2201C95.5847 16.3688 95.7898 16.4432 96.0508 16.4432C96.3428 16.468 96.871 16.3874 97.2376 15.5755L100.537 7.81569Z" fill="#8A8D8F"/>
<path d="M112.318 13.3685C113.039 13.3561 113.493 13.226 113.723 12.9656C113.946 12.7177 114.052 12.3273 114.052 11.7694C114.052 10.8831 113.654 10.0836 112.865 9.38323C112.088 8.69526 111.131 8.34198 110.025 8.34198C108.751 8.34198 107.664 8.81302 106.782 9.73652C105.905 10.66 105.464 11.7694 105.464 13.04C105.489 14.1495 105.936 15.1101 106.794 15.8973C107.645 16.6844 108.689 17.0811 109.889 17.0811C111.212 17.0811 112.293 16.8146 113.101 16.2939C113.542 16.0398 113.766 15.7299 113.766 15.3581C113.766 15.1163 113.667 14.8932 113.462 14.6887C113.256 14.4903 113.02 14.385 112.766 14.385C112.666 14.385 112.505 14.4098 111.983 14.6391C111.411 14.9924 110.765 15.1659 110.063 15.1659C109.36 15.1659 108.801 14.9614 108.354 14.5399C107.993 14.199 107.776 13.821 107.689 13.3933C108.149 13.3933 108.664 13.3871 109.224 13.3871C110.628 13.3809 111.479 13.3933 112.318 13.3685ZM111.958 11.7199C111.56 11.7385 109.037 11.7756 107.776 11.8004C107.894 11.4162 108.124 11.0753 108.472 10.7592C108.919 10.3563 109.454 10.158 110.106 10.158C110.622 10.158 111.051 10.3191 111.423 10.6414C111.753 10.9265 111.927 11.2798 111.958 11.7199Z" fill="#8A8D8F"/>
<path d="M109.895 17.2422C108.658 17.2422 107.577 16.8331 106.694 16.0212C105.806 15.2031 105.34 14.2052 105.315 13.0524C105.315 11.7384 105.775 10.5918 106.676 9.63731C107.583 8.67663 108.714 8.19319 110.031 8.19319C111.181 8.19319 112.175 8.55887 112.977 9.27163C113.797 10.003 114.213 10.8397 114.213 11.7694C114.213 12.3644 114.095 12.7859 113.847 13.0648C113.579 13.3623 113.101 13.5048 112.33 13.5234C111.784 13.5358 111.231 13.542 110.516 13.542C110.143 13.542 109.721 13.542 109.236 13.5482C108.751 13.5544 108.304 13.5544 107.9 13.5544C107.999 13.8767 108.186 14.168 108.472 14.4345C108.888 14.825 109.41 15.0171 110.075 15.0171C110.746 15.0171 111.367 14.8498 111.914 14.5089C112.449 14.2796 112.641 14.2362 112.778 14.2362C113.076 14.2362 113.35 14.3539 113.579 14.5833C113.816 14.8188 113.934 15.0791 113.934 15.3642C113.934 15.7919 113.685 16.1513 113.194 16.4302C112.355 16.9695 111.249 17.2422 109.895 17.2422ZM110.031 8.50309C108.807 8.50309 107.751 8.95554 106.906 9.84804C106.061 10.7405 105.632 11.8128 105.632 13.0462C105.657 14.106 106.092 15.0295 106.912 15.7919C107.738 16.548 108.739 16.9323 109.901 16.9323C111.193 16.9323 112.243 16.6782 113.026 16.1699C113.418 15.9468 113.617 15.6741 113.617 15.3642C113.617 15.1597 113.53 14.9799 113.356 14.8002C113.182 14.6266 112.989 14.5461 112.772 14.5461C112.697 14.5461 112.542 14.5709 112.051 14.7878C111.473 15.1411 110.802 15.327 110.069 15.327C109.323 15.327 108.733 15.1101 108.254 14.6638C107.863 14.2982 107.633 13.8953 107.546 13.4304L107.508 13.2445H107.695C108.155 13.2445 108.67 13.2383 109.23 13.2383C109.714 13.2321 110.137 13.2321 110.51 13.2321C111.218 13.2321 111.771 13.2259 112.312 13.2135C112.983 13.2011 113.405 13.0834 113.604 12.8602C113.797 12.6433 113.896 12.2838 113.896 11.7694C113.896 10.9327 113.517 10.1703 112.765 9.50096C112.02 8.83778 111.1 8.50309 110.031 8.50309ZM107.564 11.9553L107.627 11.7508C107.751 11.3417 107.993 10.9761 108.366 10.6414L108.385 10.6228C108.857 10.2013 109.422 9.99679 110.106 9.99679C110.659 9.99679 111.125 10.1641 111.529 10.5174C111.895 10.8335 112.082 11.224 112.113 11.7074L112.125 11.8624L111.97 11.8686C111.541 11.8872 108.658 11.9305 107.782 11.9491L107.564 11.9553ZM108.559 10.8831C108.298 11.1186 108.117 11.3665 107.999 11.633C108.963 11.6206 111.1 11.5835 111.79 11.5649C111.74 11.2426 111.585 10.9761 111.33 10.7467C110.988 10.4492 110.591 10.3005 110.112 10.3005C109.497 10.3005 109 10.4864 108.583 10.8583L108.559 10.8831Z" fill="#8A8D8F"/>
<path d="M121.496 8.31099C120.793 8.31099 120.129 8.47214 119.52 8.78823C119.209 8.94938 118.942 9.14771 118.712 9.37704C118.675 9.08573 118.6 8.86261 118.482 8.70766C118.327 8.50313 118.066 8.39776 117.699 8.39776C117.301 8.39776 117.009 8.50932 116.829 8.73245C116.667 8.93698 116.587 9.22209 116.58 9.61256L116.618 11.4533V13.8148C116.618 14.2982 116.612 14.763 116.605 15.2031C116.599 15.6431 116.593 15.9468 116.593 16.108C116.593 16.703 116.972 17.0439 117.631 17.0439C118.637 17.0439 118.749 16.3869 118.749 16.108V13.2074C118.749 12.8541 118.768 12.5318 118.805 12.2529C118.836 11.9926 118.911 11.7137 119.016 11.4348C119.116 11.1744 119.246 10.9575 119.408 10.7902C119.569 10.6228 119.793 10.4865 120.085 10.3749C120.377 10.2633 120.731 10.2014 121.135 10.2014C121.868 10.2076 122.85 10.4431 122.875 12.4326C122.888 12.8665 122.881 13.5049 122.857 14.3354C122.832 15.1783 122.819 15.7547 122.819 16.0584C122.819 16.6658 123.198 17.0129 123.857 17.0129C124.261 17.0129 124.559 16.9075 124.739 16.7092C124.92 16.5171 125.007 16.2258 125.007 15.8477V12.0112C125.007 10.8769 124.696 9.96584 124.093 9.30886C123.497 8.64568 122.62 8.31099 121.496 8.31099Z" fill="#8A8D8F"/>
<path d="M117.649 17.2051C116.904 17.2051 116.456 16.796 116.456 16.1142C116.456 15.9531 116.463 15.6494 116.469 15.2031C116.475 14.7631 116.481 14.3044 116.481 13.821V11.4596L116.444 9.61878C116.444 9.19113 116.537 8.87503 116.724 8.63951C116.935 8.3792 117.27 8.24284 117.712 8.24284C118.128 8.24284 118.432 8.3668 118.619 8.61472C118.706 8.73868 118.774 8.88743 118.824 9.06717C119.01 8.91222 119.222 8.76967 119.458 8.64571C120.085 8.31722 120.775 8.14987 121.502 8.14987C122.67 8.14987 123.59 8.50315 124.23 9.19732C124.864 9.8853 125.187 10.8274 125.187 12.005V15.8415C125.187 16.2568 125.081 16.5791 124.876 16.8084C124.659 17.0439 124.323 17.1617 123.876 17.1617C123.13 17.1617 122.683 16.7464 122.683 16.0522C122.683 15.7485 122.695 15.1659 122.72 14.3292C122.745 13.5049 122.751 12.8665 122.739 12.4388C122.714 10.6043 121.875 10.3625 121.148 10.3563C120.769 10.3563 120.433 10.4121 120.154 10.5175C119.886 10.6229 119.675 10.7468 119.532 10.8956C119.383 11.0443 119.265 11.2488 119.172 11.4906C119.072 11.7571 119.004 12.0174 118.973 12.2715C118.936 12.5442 118.917 12.8603 118.917 13.2074V16.108C118.923 16.3683 118.83 17.2051 117.649 17.2051ZM117.712 8.55274C117.364 8.55274 117.109 8.64571 116.966 8.83164C116.823 9.00519 116.755 9.2655 116.755 9.61259L116.792 11.4534V13.821C116.792 14.3044 116.786 14.7693 116.78 15.2093C116.773 15.6494 116.767 15.9531 116.767 16.1142C116.767 16.765 117.246 16.8952 117.649 16.8952C118.445 16.8952 118.613 16.4675 118.613 16.1142V13.2136C118.613 12.8541 118.631 12.5256 118.669 12.2405C118.706 11.9616 118.774 11.6765 118.886 11.3852C118.992 11.1001 119.141 10.8646 119.315 10.6848C119.489 10.5051 119.731 10.3501 120.042 10.2324C120.353 10.1146 120.725 10.0526 121.148 10.0526C122.403 10.065 123.025 10.846 123.043 12.4388C123.056 12.8727 123.049 13.5173 123.025 14.3478C123 15.1845 122.987 15.7609 122.987 16.0646C122.987 16.7278 123.466 16.8642 123.87 16.8642C124.224 16.8642 124.485 16.7774 124.64 16.6101C124.789 16.4427 124.87 16.1886 124.87 15.8539V12.0174C124.87 10.9204 124.578 10.0464 123.994 9.42045C123.41 8.78826 122.571 8.47217 121.49 8.47217C120.812 8.47217 120.172 8.62711 119.588 8.93081C119.29 9.08576 119.035 9.2717 118.824 9.48863L118.6 9.71795L118.563 9.40186C118.532 9.13535 118.463 8.94321 118.364 8.80685C118.24 8.63331 118.022 8.55274 117.712 8.55274Z" fill="#8A8D8F"/>
<path d="M132.8 15.0362C132.682 15.0362 132.52 15.0672 132.315 15.1292C132.166 15.1726 132.017 15.1974 131.868 15.1974C131.408 15.1974 131.252 15.0114 131.178 14.8689C131.022 14.5962 130.948 14.1313 130.948 13.4743V10.3258H132.551C133.185 10.3258 133.552 9.99109 133.552 9.40228C133.552 8.81348 133.185 8.47879 132.545 8.47879L130.935 8.49118C130.954 7.93957 130.96 7.49331 130.96 7.15863C130.96 6.81154 130.898 6.55742 130.768 6.38388C130.619 6.17935 130.37 6.08018 130.016 6.08018C129.295 6.08018 128.879 6.55123 128.879 7.36316L128.86 8.49738H127.971C127.313 8.49738 126.934 8.83827 126.934 9.43327C126.934 10.0097 127.282 10.3382 127.897 10.3382H128.854C128.854 10.71 128.848 11.2183 128.835 11.8629C128.823 12.6996 128.817 13.3132 128.817 13.7098C128.817 14.8751 129.053 15.6994 129.531 16.2448C130.016 16.7902 130.768 17.0629 131.781 17.0629C132.321 17.0629 132.756 16.9886 133.123 16.8274C133.477 16.6663 133.676 16.3502 133.676 15.9473C133.676 15.7118 133.595 15.5011 133.446 15.3213C133.291 15.1354 133.067 15.0362 132.8 15.0362Z" fill="#8A8D8F"/>
<path d="M131.793 17.2238C130.736 17.2238 129.941 16.9325 129.425 16.3498C128.922 15.7796 128.673 14.9181 128.673 13.7157C128.673 13.3191 128.68 12.7055 128.692 11.8687C128.698 11.3109 128.704 10.8585 128.711 10.5052H127.909C127.207 10.5052 126.791 10.1085 126.791 9.44535C126.791 8.76358 127.238 8.35451 127.984 8.35451H128.717L128.729 7.37524C128.729 6.47654 129.214 5.93732 130.022 5.93732C130.426 5.93732 130.724 6.06128 130.904 6.303C131.053 6.50133 131.122 6.78643 131.122 7.16451C131.122 7.46821 131.115 7.85868 131.097 8.34211L132.545 8.32972C133.272 8.32972 133.707 8.73259 133.707 9.40816C133.707 10.0837 133.272 10.4866 132.551 10.4866H131.103V13.474C131.103 14.2549 131.215 14.6206 131.314 14.7942C131.358 14.8685 131.451 15.0421 131.874 15.0421C132.004 15.0421 132.141 15.0235 132.277 14.9801C132.495 14.9181 132.669 14.8809 132.806 14.8809C133.116 14.8809 133.384 15.0049 133.582 15.2342C133.763 15.445 133.85 15.6867 133.85 15.9594C133.85 16.418 133.613 16.7899 133.203 16.9758C132.812 17.1432 132.352 17.2238 131.793 17.2238ZM127.984 8.65821C127.58 8.65821 127.101 8.79456 127.101 9.43915C127.101 10.0589 127.542 10.1891 127.909 10.1891H129.021V10.3441C129.021 10.7159 129.015 11.2242 129.003 11.8687C128.99 12.7055 128.984 13.3191 128.984 13.7095C128.984 14.8314 129.202 15.6309 129.655 16.1391C130.109 16.6474 130.823 16.9077 131.787 16.9077C132.309 16.9077 132.725 16.8333 133.067 16.6845C133.365 16.5482 133.526 16.2941 133.526 15.947C133.526 15.7487 133.458 15.5751 133.334 15.4202C133.197 15.259 133.017 15.1784 132.799 15.1784C132.694 15.1784 132.551 15.2094 132.358 15.2652C132.19 15.3148 132.029 15.3396 131.867 15.3396C131.463 15.3396 131.19 15.2094 131.041 14.9305C130.873 14.633 130.792 14.1558 130.792 13.4616V10.1643H132.551C132.936 10.1643 133.396 10.0342 133.396 9.39576C133.396 8.76358 132.936 8.62722 132.545 8.62722L130.774 8.64582L130.78 8.48467C130.799 7.93305 130.805 7.493 130.805 7.15831C130.805 6.84841 130.755 6.62529 130.643 6.47654C130.525 6.31539 130.314 6.23482 130.016 6.23482C129.382 6.23482 129.034 6.63768 129.034 7.36284L129.015 8.65201H127.984V8.65821Z" fill="#8A8D8F"/>
<path d="M144.63 9.68702C144.63 9.30275 144.568 9.01144 144.431 8.80691C144.27 8.55899 143.99 8.43504 143.592 8.43504C143.058 8.43504 142.697 8.73874 142.617 9.25936C142.61 9.27796 142.61 9.29035 142.604 9.30895C141.939 8.69535 141.082 8.38545 140.032 8.38545C138.727 8.38545 137.614 8.82551 136.732 9.69322C135.844 10.5609 135.396 11.6642 135.396 12.9719C135.396 14.1 135.806 15.0792 136.614 15.8726C137.422 16.6659 138.478 17.0688 139.74 17.0688C140.958 17.0688 141.915 16.7155 142.604 16.0151C142.642 16.2258 142.679 16.3932 142.729 16.5171C142.803 16.7031 143.008 17.0192 143.549 17.0192C144.555 17.0192 144.667 16.3994 144.667 16.1143C144.605 15.2218 144.574 14.3975 144.574 13.6723L144.63 9.68702ZM142.53 12.7426C142.53 13.4864 142.294 14.0752 141.803 14.5338C141.312 14.9987 140.697 15.228 139.932 15.228C139.267 15.228 138.727 15.011 138.267 14.571C137.807 14.1309 137.59 13.5917 137.59 12.9161C137.59 12.129 137.826 11.4968 138.298 10.9824C138.77 10.4742 139.342 10.2262 140.05 10.2262C140.728 10.2262 141.299 10.4494 141.803 10.9018C142.294 11.3481 142.53 11.9555 142.53 12.7426Z" fill="#8A8D8F"/>
<path d="M139.746 17.2239C138.435 17.2239 137.348 16.8086 136.509 15.9843C135.67 15.16 135.241 14.1435 135.241 12.9721C135.241 11.6272 135.707 10.4867 136.621 9.58183C137.534 8.68313 138.684 8.23068 140.032 8.23068C141.014 8.23068 141.853 8.4972 142.512 9.02402C142.661 8.55917 143.052 8.28027 143.593 8.28027C144.046 8.28027 144.376 8.42902 144.562 8.72032C144.711 8.94964 144.786 9.26574 144.786 9.6872L144.73 13.6663C144.73 14.3914 144.761 15.2096 144.823 16.0959C144.823 16.4244 144.699 17.1681 143.556 17.1681C142.903 17.1681 142.667 16.7528 142.592 16.5731C142.561 16.4987 142.536 16.4182 142.512 16.319C141.809 16.9202 140.884 17.2239 139.746 17.2239ZM140.032 8.53438C138.771 8.53438 137.696 8.96204 136.838 9.79876C135.981 10.6417 135.552 11.7077 135.552 12.9659C135.552 14.0567 135.95 14.9926 136.726 15.7612C137.503 16.5235 138.522 16.914 139.746 16.914C140.915 16.914 141.841 16.5731 142.499 15.9037L142.717 15.6868L142.766 15.9905C142.804 16.2012 142.841 16.35 142.878 16.4615C142.953 16.6475 143.127 16.8644 143.549 16.8644C144.345 16.8644 144.513 16.4553 144.513 16.1145C144.45 15.2344 144.419 14.41 144.419 13.6725L144.475 9.6934C144.475 9.33392 144.419 9.0736 144.301 8.90006C144.171 8.70173 143.935 8.60256 143.593 8.60256C143.133 8.60256 142.841 8.85048 142.773 9.29673L142.71 9.63142L142.505 9.43928C141.865 8.83188 141.033 8.53438 140.032 8.53438ZM139.933 15.3769C139.231 15.3769 138.647 15.1476 138.156 14.6765C137.665 14.2055 137.429 13.6291 137.429 12.9101C137.429 12.0858 137.677 11.4164 138.181 10.871C138.684 10.3256 139.293 10.0653 140.045 10.0653C140.766 10.0653 141.368 10.3008 141.903 10.7842C142.431 11.2677 142.686 11.9061 142.686 12.7366C142.686 13.5237 142.431 14.1497 141.909 14.6394C141.387 15.1414 140.741 15.3769 139.933 15.3769ZM140.051 10.3814C139.392 10.3814 138.858 10.6107 138.41 11.0879C137.963 11.5776 137.746 12.1726 137.746 12.9163C137.746 13.5485 137.951 14.0505 138.379 14.4596C138.808 14.8749 139.318 15.0732 139.939 15.0732C140.66 15.0732 141.238 14.8625 141.704 14.4224C142.157 13.9948 142.381 13.4432 142.381 12.7428C142.381 11.999 142.157 11.435 141.698 11.0136C141.225 10.5859 140.685 10.3814 140.051 10.3814Z" fill="#8A8D8F"/>
<path d="M150.106 4.17716C149.938 3.94784 149.652 3.83008 149.248 3.83008C148.937 3.83008 148.67 3.91685 148.465 4.09039C148.235 4.27633 148.117 4.53664 148.117 4.85894C148.08 11.1684 148.086 14.8314 148.136 15.7239C148.148 16.1764 148.248 16.5111 148.44 16.7404C148.571 16.9015 148.813 17.0751 149.186 17.0751C149.223 17.0751 149.254 17.0751 149.298 17.0689C150.211 17.0441 150.311 16.4181 150.311 16.1454L150.305 13.1022C150.298 10.4805 150.292 7.77197 150.329 5.10066C150.323 4.68539 150.249 4.3817 150.106 4.17716Z" fill="#8A8D8F"/>
<path d="M149.18 17.23C148.738 17.23 148.465 17.0193 148.316 16.8395C148.105 16.5792 147.993 16.2197 147.974 15.7301C147.924 14.8376 147.918 11.1746 147.955 4.8589C147.955 4.49322 148.098 4.18952 148.359 3.97259C148.595 3.78046 148.894 3.68129 149.242 3.68129C149.701 3.68129 150.031 3.81764 150.23 4.09655C150.397 4.32587 150.478 4.66056 150.478 5.10682C150.447 7.68516 150.447 10.3007 150.453 12.8357L150.46 16.1577C150.46 16.4057 150.373 17.2052 149.298 17.2362C149.26 17.2238 149.217 17.23 149.18 17.23ZM149.242 3.98499C148.968 3.98499 148.732 4.05936 148.552 4.20811C148.359 4.36306 148.26 4.58619 148.26 4.8527C148.223 11.1684 148.229 14.819 148.278 15.7115C148.291 16.133 148.378 16.4305 148.546 16.635C148.664 16.7775 148.881 16.9449 149.267 16.9139C149.987 16.8953 150.136 16.4862 150.136 16.1454L150.13 12.8233C150.124 10.2945 150.118 7.67276 150.155 5.09442C150.155 4.71635 150.093 4.44364 149.969 4.2639C149.844 4.07796 149.596 3.98499 149.242 3.98499Z" fill="#8A8D8F"/>
<path d="M167.38 4.50571C167.032 4.50571 166.765 4.59868 166.578 4.78462C166.411 4.95816 166.286 5.21847 166.212 5.59654C165.895 7.22041 165.329 9.76776 164.54 13.1642L161.968 6.16056C161.881 5.96223 161.738 5.78868 161.545 5.64613C161.34 5.49738 161.104 5.423 160.837 5.423C160.408 5.423 159.836 5.61514 159.55 6.50764C158.444 9.74297 157.643 12.0362 157.158 13.3564L155.48 5.34243C155.362 4.80321 154.977 4.49951 154.393 4.49951C154.045 4.49951 153.759 4.60487 153.554 4.8218C153.33 5.05113 153.25 5.34243 153.324 5.65853L155.263 14.4906C155.288 14.5898 155.319 14.7323 155.356 14.9182C155.518 15.6744 155.673 16.1764 155.835 16.4615C156.033 16.8086 156.4 16.9946 156.922 17.0131C157.195 17.0131 157.444 16.9264 157.661 16.7466C157.86 16.5855 157.997 16.4305 158.078 16.2694C158.146 16.1392 158.227 15.9595 158.32 15.724C159.513 12.6064 160.352 10.3504 160.868 8.87526L163.515 16.0029C163.583 16.1764 163.652 16.3252 163.714 16.4367C163.795 16.5855 163.931 16.7219 164.111 16.8334C164.298 16.9512 164.515 17.007 164.764 17.007C165.174 17.007 165.46 16.9078 165.64 16.7095C165.795 16.5359 165.914 16.2756 165.982 15.9285L168.436 5.62754C168.511 5.30524 168.418 5.00774 168.175 4.79081C167.945 4.60488 167.685 4.50571 167.38 4.50571Z" fill="#8A8D8F"/>
<path d="M164.758 17.168C164.478 17.168 164.236 17.0998 164.025 16.9696C163.819 16.8457 163.67 16.6907 163.571 16.5172C163.503 16.3932 163.434 16.2383 163.366 16.0647L160.868 9.33997C160.346 10.8089 159.557 12.9286 158.463 15.7858C158.37 16.0213 158.283 16.2073 158.215 16.3436C158.121 16.5234 157.972 16.6969 157.755 16.8705C157.512 17.0688 157.233 17.168 156.922 17.168C156.338 17.1494 155.928 16.9386 155.698 16.542C155.524 16.2383 155.362 15.7238 155.201 14.9553C155.163 14.7756 155.132 14.633 155.108 14.5338L153.163 5.70178C153.076 5.3361 153.175 4.98902 153.436 4.72871C153.672 4.48079 153.995 4.35683 154.387 4.35683C155.039 4.35683 155.493 4.71011 155.63 5.31751L157.195 12.7984C157.693 11.4349 158.432 9.30898 159.401 6.46413C159.737 5.42907 160.445 5.27413 160.837 5.27413C161.135 5.27413 161.402 5.3609 161.638 5.52204C161.856 5.68319 162.017 5.87533 162.117 6.10465L164.515 12.6249C165.255 9.45773 165.777 7.09012 166.069 5.56543C166.15 5.15636 166.286 4.86506 166.479 4.67292C166.697 4.456 167.001 4.35063 167.392 4.35063C167.734 4.35063 168.033 4.46219 168.281 4.67912C168.573 4.93324 168.679 5.28652 168.592 5.66459L166.137 15.9718C166.057 16.3436 165.932 16.6225 165.758 16.8209C165.535 17.0564 165.211 17.168 164.758 17.168ZM154.387 4.66053C154.082 4.66053 153.834 4.7535 153.66 4.93944C153.473 5.13157 153.405 5.36709 153.467 5.6336L155.406 14.4657C155.431 14.5648 155.462 14.7074 155.499 14.8933C155.654 15.6309 155.81 16.1205 155.959 16.3932C156.133 16.6969 156.45 16.8519 156.916 16.8643C157.146 16.8643 157.363 16.7837 157.55 16.6349C157.73 16.4862 157.854 16.3498 157.929 16.2073C157.997 16.0771 158.078 15.9036 158.165 15.6743C159.358 12.5443 160.197 10.3068 160.713 8.83174L160.855 8.42887L163.652 15.9594C163.714 16.1205 163.776 16.2569 163.838 16.3746C163.906 16.4986 164.018 16.6163 164.18 16.7093C164.341 16.8085 164.534 16.8643 164.752 16.8643C165.112 16.8643 165.367 16.7837 165.516 16.6163C165.653 16.4614 165.758 16.2259 165.827 15.9098L168.281 5.60262C168.343 5.3361 168.269 5.09439 168.064 4.92084C167.871 4.7535 167.641 4.66673 167.38 4.66673C167.076 4.66673 166.839 4.7473 166.69 4.89605C166.541 5.0448 166.436 5.28652 166.367 5.62741C166.057 7.23267 165.491 9.78002 164.689 13.2013L164.571 13.7095L161.819 6.21621C161.75 6.04887 161.62 5.90012 161.452 5.76996C161.278 5.646 161.067 5.57782 160.837 5.57782C160.29 5.57782 159.905 5.90631 159.693 6.5571C158.594 9.78622 157.786 12.0919 157.295 13.412L157.108 13.9202L155.319 5.37949C155.219 4.90845 154.896 4.66053 154.387 4.66053Z" fill="#8A8D8F"/>
<path d="M176.558 14.3915C176.459 14.3915 176.297 14.4163 175.775 14.6456C175.204 14.9989 174.557 15.1725 173.855 15.1725C173.153 15.1725 172.594 14.9679 172.146 14.5465C171.786 14.2056 171.569 13.8275 171.482 13.3999C171.948 13.3999 172.457 13.3937 173.016 13.3937C174.421 13.3813 175.266 13.3937 176.105 13.3689C176.826 13.3565 177.279 13.2263 177.509 12.966C177.733 12.7181 177.838 12.3276 177.838 11.7698C177.838 10.8835 177.441 10.084 176.652 9.38359C175.875 8.69561 174.918 8.34233 173.812 8.34233C172.538 8.34233 171.45 8.81337 170.568 9.73687C169.692 10.6604 169.251 11.7698 169.251 13.0404C169.276 14.1498 169.723 15.1105 170.581 15.8976C171.432 16.6848 172.476 17.0814 173.675 17.0814C174.992 17.0814 176.08 16.8149 176.888 16.2943C177.329 16.0402 177.553 15.7303 177.553 15.3584C177.553 15.1167 177.447 14.8936 177.248 14.689C177.049 14.4845 176.813 14.3915 176.558 14.3915ZM171.556 11.7946C171.674 11.4103 171.904 11.0694 172.252 10.7533C172.699 10.3505 173.234 10.1521 173.886 10.1521C174.402 10.1521 174.831 10.3133 175.204 10.6356C175.533 10.9207 175.707 11.2802 175.738 11.7202C175.34 11.7388 172.818 11.776 171.556 11.7946Z" fill="#8A8D8F"/>
<path d="M173.681 17.2425C172.438 17.2425 171.363 16.8334 170.481 16.0215C169.592 15.2033 169.126 14.2055 169.102 13.0527C169.102 11.7387 169.561 10.5921 170.462 9.6376C171.376 8.67692 172.501 8.19348 173.818 8.19348C174.967 8.19348 175.962 8.55916 176.763 9.27192C177.584 10.0033 178 10.84 178 11.7697C178 12.3647 177.876 12.7923 177.627 13.0713C177.36 13.3688 176.875 13.5113 176.105 13.5237C175.558 13.5361 175.005 13.5423 174.296 13.5423C173.924 13.5423 173.501 13.5423 173.016 13.5485C172.532 13.5547 172.09 13.5547 171.68 13.5547C171.78 13.877 171.966 14.1683 172.252 14.4348C172.668 14.8253 173.197 15.0174 173.855 15.0174C174.526 15.0174 175.148 14.8501 175.695 14.5092C176.229 14.2799 176.415 14.2365 176.558 14.2365C176.857 14.2365 177.13 14.3542 177.366 14.5835C177.602 14.8129 177.72 15.0794 177.72 15.3645C177.72 15.7921 177.472 16.1516 176.981 16.4305C176.142 16.9698 175.036 17.2425 173.681 17.2425ZM173.818 8.50338C172.594 8.50338 171.537 8.95583 170.686 9.84833C169.841 10.7408 169.412 11.8131 169.412 13.0465C169.437 14.1063 169.872 15.0298 170.692 15.7922C171.519 16.5483 172.519 16.9326 173.681 16.9326C174.974 16.9326 176.024 16.6785 176.807 16.1702C177.205 15.9409 177.397 15.6744 177.397 15.3645C177.397 15.1662 177.31 14.974 177.136 14.8067C176.962 14.6331 176.77 14.5464 176.552 14.5464C176.477 14.5464 176.322 14.5712 175.831 14.7881C175.253 15.1476 174.582 15.3273 173.849 15.3273C173.11 15.3273 172.513 15.1104 172.035 14.6641C171.643 14.2984 171.413 13.8956 171.326 13.4307L171.289 13.2448H171.475C171.941 13.2448 172.451 13.2386 173.01 13.2386C173.495 13.2324 173.917 13.2324 174.29 13.2324C174.999 13.2324 175.545 13.2262 176.092 13.2138C176.763 13.2014 177.186 13.0837 177.385 12.8605C177.584 12.6436 177.677 12.2841 177.677 11.7697C177.677 10.933 177.298 10.1706 176.546 9.50125C175.806 8.83807 174.887 8.50338 173.818 8.50338ZM171.345 11.9556L171.407 11.7511C171.531 11.342 171.774 10.9764 172.146 10.6417L172.177 10.6169C172.625 10.2078 173.19 9.99708 173.886 9.99708C174.439 9.99708 174.905 10.1644 175.303 10.5177C175.67 10.8338 175.856 11.2243 175.887 11.7077L175.9 11.8627L175.744 11.8689C175.309 11.8875 172.432 11.9308 171.556 11.9494L171.345 11.9556ZM173.892 10.307C173.277 10.307 172.78 10.4929 172.358 10.8648L172.327 10.8896C172.084 11.1127 171.898 11.3606 171.78 11.6333C172.743 11.6209 174.874 11.5838 175.57 11.5652C175.521 11.2429 175.365 10.9764 175.11 10.747C174.762 10.4557 174.365 10.307 173.892 10.307Z" fill="#8A8D8F"/>
<path d="M71.6284 3.55945C71.6929 3.41088 71.7922 3.30688 71.9263 3.24746C72.0107 3.20784 72.0951 3.18307 72.1795 3.18307C72.244 3.18307 72.3036 3.19298 72.3682 3.21279L72.6611 3.38612C72.8101 3.42574 72.8746 3.53469 72.9342 3.6684C72.9987 3.80211 72.9987 3.94078 72.9342 4.07449C72.537 5.02534 71.9164 6.36246 71.6929 7.05579V17.4111C71.6929 17.5597 71.6383 17.6835 71.5291 17.7974C71.4198 17.9063 71.2858 17.9608 71.1269 17.9608H70.7347C70.5857 17.9608 70.4616 17.9063 70.3474 17.7974C70.2382 17.6884 70.1835 17.5597 70.1835 17.4111V8.799C70.1835 8.7891 68.555 11.0325 68.3067 11.2999C68.2223 11.4039 68.1081 11.4733 67.984 11.4237C67.8748 11.3792 67.5272 11.0622 67.2889 10.8096C67.0605 10.6016 67.3038 10.3095 67.4081 10.1857C68.0386 9.51709 69.6473 7.29845 70.2133 6.40703C70.7794 5.52057 71.251 4.50039 71.6284 3.55945Z" fill="#8A8D8F"/>
<path d="M71.1316 18.1491H70.7394C70.5408 18.1491 70.367 18.0748 70.223 17.9312C70.079 17.7875 70.0045 17.6142 70.0045 17.4161V9.36366C69.3392 10.2699 68.6193 11.2406 68.4505 11.4288C68.3065 11.6071 68.1079 11.6764 67.9192 11.6021C67.7454 11.5278 67.3284 11.1267 67.1596 10.9434C67.0056 10.8048 66.8865 10.5275 67.2688 10.0718C67.8944 9.40328 69.4882 7.2094 70.0592 6.31304C70.5408 5.55533 71.0125 4.60944 71.4593 3.49517V3.49022C71.5388 3.30203 71.6728 3.16336 71.8516 3.07917C72.0353 2.99003 72.2339 2.97517 72.4275 3.03955L72.7403 3.21784C72.9439 3.28717 73.0382 3.43574 73.1077 3.59421C73.1921 3.77745 73.1921 3.97554 73.1077 4.15878C72.9836 4.45096 72.8396 4.79267 72.6857 5.13438C72.3679 5.86733 72.0402 6.62008 71.8814 7.09055V17.4161C71.8814 17.6142 71.8069 17.7875 71.6629 17.9312C71.5139 18.0748 71.3352 18.1491 71.1316 18.1491ZM70.1734 8.60101C70.1932 8.60101 70.218 8.60596 70.2478 8.61586L70.3769 8.65548V17.4112C70.3769 17.5102 70.4117 17.5895 70.4862 17.6637C70.5606 17.738 70.6401 17.7727 70.7394 17.7727H71.1316C71.2409 17.7727 71.3253 17.738 71.3997 17.6637C71.4742 17.5895 71.509 17.5102 71.509 17.4112L71.5189 6.99646C71.6778 6.51113 72.0154 5.73361 72.3431 4.98086C72.4921 4.63915 72.641 4.3024 72.7651 4.00526C72.8098 3.91116 72.8098 3.83193 72.7701 3.74774C72.7155 3.62393 72.6758 3.58431 72.6112 3.5645L72.5665 3.54469L72.2736 3.37136C72.2686 3.37136 72.2239 3.36641 72.1793 3.36641C72.1246 3.36641 72.07 3.38126 72.0104 3.41098C71.9111 3.45555 71.8466 3.52488 71.8019 3.62888C71.3451 4.76296 70.8685 5.72866 70.372 6.50618C69.791 7.41245 68.1774 9.63604 67.5468 10.3096C67.3184 10.5819 67.3879 10.6463 67.4177 10.6711C67.6908 10.9583 67.9887 11.2208 68.0582 11.2505C68.0831 11.2604 68.1377 11.2109 68.1625 11.1812C68.3462 10.9831 69.2796 9.71032 69.7265 9.10119C70.0294 8.6951 70.0939 8.60101 70.1734 8.60101Z" fill="#8A8D8F"/>
<path d="M82.9492 16.0443C82.0108 15.2519 80.4369 13.8702 79.429 12.4836C79.002 11.8942 79.5134 11.8794 79.7716 11.8794H82.7953C82.9641 11.8794 83.1031 11.7407 83.1031 11.5723V10.9682C83.1031 10.7998 82.9641 10.6611 82.7953 10.6611H79.136C78.9672 10.6611 78.8282 10.5225 78.8282 10.3541V9.02686H80.7447C81.3951 9.02686 81.9214 8.50191 81.9214 7.85316V4.60444C81.9214 3.95569 81.3951 3.43074 80.7447 3.43074H75.293C74.6426 3.43074 74.1163 3.95569 74.1163 4.60444V7.85316C74.1163 8.50191 74.6426 9.02686 75.293 9.02686H77.2096L77.2046 10.3541C77.2046 10.5225 77.0656 10.6611 76.8968 10.6611H73.4659C73.2971 10.6611 73.158 10.7998 73.158 10.9682V11.5723C73.158 11.7407 73.2971 11.8794 73.4659 11.8794H75.8789C76.1073 11.8794 76.5591 11.8299 76.6038 12.0527C76.7379 12.6767 74.156 15.346 73.1283 16.0096C72.885 16.1631 73.019 16.3612 73.019 16.3612L73.4262 17.005C73.5155 17.1338 73.6943 17.1784 73.8333 17.0991C75.0349 16.4058 77.2096 13.8058 77.2096 14.0931V17.6092C77.2096 17.7776 77.3486 17.9163 77.5174 17.9163H78.5253C78.6941 17.9163 78.8331 17.7776 78.8331 17.6092V13.9297C79.5878 14.6576 81.3455 16.5197 82.1598 17.3071C82.2889 17.4309 82.5073 17.3814 82.6066 17.2328L83.0584 16.485C83.1577 16.3315 83.0882 16.1631 82.9492 16.0443ZM76.2265 7.6303C75.9137 7.6303 75.6555 7.27374 75.6555 6.95679V5.39681C75.6555 5.08481 75.9087 4.82729 76.2265 4.82729H79.8212C80.134 4.82729 80.3922 5.07986 80.3922 5.39681V6.95679C80.3922 7.26879 80.139 7.6303 79.8212 7.6303H76.2265Z" fill="#8A8D8F"/>
<path d="M78.5248 18.0996H77.5168C77.2438 18.0996 77.0203 17.8768 77.0203 17.6044V14.4349C76.8515 14.5934 76.6231 14.8311 76.4096 15.049C75.6649 15.8067 74.642 16.8467 73.9271 17.2577C73.7086 17.3815 73.4206 17.3172 73.2766 17.1092L72.8645 16.4604C72.8496 16.4406 72.7752 16.3168 72.8099 16.1534C72.8248 16.0692 72.8794 15.9503 73.0334 15.8562C74.2101 15.0985 76.5238 12.5332 76.4295 12.0925C76.3798 12.0528 76.1018 12.0578 75.9975 12.0627H75.8833H73.4703C73.1972 12.0627 72.9738 11.8399 72.9738 11.5675V10.9633C72.9738 10.691 73.1972 10.4681 73.4703 10.4681H76.9012C76.9707 10.4681 77.0253 10.4136 77.0253 10.3443L77.0303 9.20031H75.3024C74.5527 9.20031 73.942 8.59117 73.942 7.84337V4.60455C73.942 3.85675 74.5527 3.24762 75.3024 3.24762H80.7541C81.5038 3.24762 82.1145 3.85675 82.1145 4.60455V7.85328C82.1145 8.60108 81.5038 9.21021 80.7541 9.21021H79.0213V10.3542C79.0213 10.4235 79.0759 10.478 79.1454 10.478H82.8047C83.0777 10.478 83.3012 10.7009 83.3012 10.9732V11.5774C83.3012 11.8498 83.0777 12.0727 82.8047 12.0727H79.7809C79.5277 12.0727 79.4681 12.1073 79.4582 12.1222C79.4582 12.1222 79.4532 12.1915 79.5873 12.3846C80.6697 13.8753 82.4819 15.4056 83.0777 15.9107C83.3061 16.1038 83.3657 16.3812 83.2217 16.5941L82.7699 17.337C82.6805 17.4657 82.5465 17.5499 82.3975 17.5697C82.2635 17.5846 82.1294 17.54 82.0351 17.4509C81.618 17.0497 80.9527 16.3614 80.3072 15.6977C79.8306 15.2075 79.3787 14.742 79.0262 14.3854V17.6192C79.0163 17.8817 78.7978 18.0996 78.5248 18.0996ZM77.1842 13.8802C77.214 13.8802 77.2388 13.8852 77.2686 13.9001L77.3828 13.9496L77.3927 14.0932V17.6093C77.3927 17.6787 77.4473 17.7332 77.5168 17.7332H78.5248C78.5943 17.7332 78.6489 17.6787 78.6489 17.6093V13.494L78.9666 13.7961C79.339 14.1526 79.9398 14.7717 80.5753 15.4254C81.2158 16.089 81.8812 16.7724 82.2933 17.1686C82.3082 17.1834 82.333 17.1884 82.3578 17.1884C82.3975 17.1834 82.4373 17.1587 82.4571 17.129L82.9089 16.3861C82.9635 16.3019 82.8692 16.2128 82.8394 16.1831C82.2386 15.673 80.4016 14.118 79.2894 12.5926C79.2199 12.4936 79.0014 12.1965 79.1305 11.9439C79.2596 11.6963 79.6171 11.6963 79.7859 11.6963H82.8096C82.8791 11.6963 82.9338 11.6418 82.9338 11.5725V10.9683C82.9338 10.899 82.8791 10.8445 82.8096 10.8445H79.1504C78.8773 10.8445 78.6538 10.6216 78.6538 10.3492V8.83384H80.759C81.3052 8.83384 81.7471 8.39308 81.7471 7.84832V4.60455C81.7471 4.0598 81.3052 3.61904 80.759 3.61904H75.3074C74.7612 3.61904 74.3193 4.0598 74.3193 4.60455V7.85328C74.3193 8.39803 74.7612 8.83879 75.3074 8.83879H77.4126L77.4026 10.3542C77.4026 10.6266 77.1792 10.8445 76.9061 10.8445H73.4752C73.4057 10.8445 73.3511 10.899 73.3511 10.9683V11.5725C73.3511 11.6418 73.4057 11.6963 73.4752 11.6963H75.9926C76.2855 11.6864 76.7224 11.6765 76.7969 12.0182C76.9657 12.8006 74.22 15.5393 73.2369 16.1732C73.1575 16.2227 73.1724 16.2524 73.1823 16.2673L73.5894 16.9111C73.6192 16.9556 73.6887 16.9754 73.7434 16.9408C74.4137 16.5545 75.4166 15.5343 76.1465 14.7915C76.8515 14.0684 77.0402 13.8802 77.1842 13.8802ZM79.8206 7.81366H76.2259C75.7939 7.81366 75.4712 7.363 75.4712 6.95691V5.39693C75.4712 4.98093 75.8088 4.64417 76.2259 4.64417H79.8206C80.2377 4.64417 80.5753 4.98093 80.5753 5.39693V6.95691C80.5753 7.363 80.2526 7.81366 79.8206 7.81366ZM76.2259 5.0156C76.0174 5.0156 75.8436 5.18893 75.8436 5.39693V6.95691C75.8436 7.16986 76.0223 7.44223 76.2259 7.44223H79.8206C80.0242 7.44223 80.203 7.16986 80.203 6.95691V5.39693C80.203 5.18398 80.0292 5.0156 79.8206 5.0156H76.2259Z" fill="#8A8D8F"/>
<path d="M50.8311 9.01165C50.6275 8.8928 50.3196 9.05127 50.2005 9.25432C49.2025 11.0272 48.4577 12.0177 46.9831 13.1666C46.7746 13.3301 46.854 13.7114 47.0327 13.9045L47.7229 14.5335C47.9066 14.7316 48.3535 14.6821 48.5223 14.4741C49.5749 13.1815 50.3594 11.5076 50.9601 9.53165C51.0297 9.32365 51.0644 9.14537 50.8311 9.01165Z" fill="#8A8D8F"/>
<path d="M48.0705 14.8456C47.8768 14.8456 47.703 14.7813 47.5888 14.6624L46.9086 14.0434C46.7448 13.87 46.6604 13.6274 46.6753 13.4045C46.6852 13.2411 46.7547 13.1074 46.8689 13.0182C48.3783 11.8445 49.0933 10.8392 50.0366 9.16039C50.131 8.99201 50.3097 8.8583 50.5034 8.80382C50.6523 8.7642 50.8013 8.77906 50.9204 8.84839C51.2928 9.06629 51.1935 9.40305 51.1389 9.58133C50.4984 11.696 49.6891 13.3302 48.6663 14.5881C48.5421 14.7367 48.3336 14.8357 48.1003 14.8407C48.0953 14.8456 48.0854 14.8456 48.0705 14.8456ZM50.6722 9.15544C50.6473 9.15544 50.6225 9.16039 50.6076 9.16534C50.5133 9.1901 50.414 9.26439 50.3693 9.34362C49.4011 11.067 48.6613 12.0971 47.1023 13.3104C47.0725 13.3352 47.0526 13.3748 47.0526 13.4293C47.0427 13.5432 47.0973 13.6868 47.1767 13.771L47.857 14.39C47.9116 14.4445 47.996 14.4693 48.0953 14.4643C48.2194 14.4594 48.3336 14.4148 48.3882 14.3455C49.3763 13.1272 50.1657 11.5325 50.7913 9.46743C50.8559 9.25448 50.841 9.21982 50.7417 9.16534C50.7168 9.16039 50.697 9.15544 50.6722 9.15544Z" fill="#8A8D8F"/>
<path d="M59.1826 12.3446H59.1528C58.7903 12.3446 58.701 12.6418 58.696 13.0033C58.6662 15.0734 58.5172 15.5191 57.5937 15.6033C56.9185 15.6676 55.3743 15.6528 54.7785 15.6033C54.004 15.5389 53.86 15.1229 53.86 14.3998V8.91268C53.86 8.60068 53.6068 8.34811 53.294 8.34811H52.7975C52.4847 8.34811 52.2314 8.60068 52.2314 8.91268V15.1526C52.2314 17.0939 52.9266 17.2227 54.3317 17.3118C55.2006 17.3663 57.0128 17.4208 58.0207 17.3118C60.1359 17.079 60.0515 15.9648 59.6493 12.9092C59.6145 12.6467 59.4457 12.3446 59.1826 12.3446Z" fill="#8A8D8F"/>
<path d="M56.4367 17.5644C55.6473 17.5644 54.838 17.5347 54.3166 17.5001C52.8668 17.406 52.0426 17.2524 52.0426 15.1576V8.91274C52.0426 8.49675 52.3802 8.15999 52.7973 8.15999H53.2938C53.7109 8.15999 54.0485 8.49675 54.0485 8.91274V14.3999C54.0485 15.1428 54.2173 15.3706 54.7933 15.4201C55.3593 15.4647 56.8935 15.4845 57.5737 15.4201C58.3036 15.3508 58.4774 15.118 58.5072 12.9984C58.5171 12.3051 58.8647 12.1565 59.1477 12.1565H59.1775C59.5399 12.1565 59.7782 12.523 59.8279 12.8845C60.096 14.9149 60.2152 16.0986 59.669 16.7919C59.3562 17.1881 58.8498 17.406 58.0355 17.4951C57.6085 17.5446 57.0276 17.5644 56.4367 17.5644ZM52.7973 8.53141C52.5888 8.53141 52.415 8.69979 52.415 8.91274V15.1527C52.415 16.9305 52.9711 17.0395 54.3414 17.1237C55.2352 17.1831 57.0226 17.2326 58.0007 17.1237C58.7107 17.0444 59.1377 16.8711 59.386 16.5591C59.8428 15.9797 59.7186 14.8605 59.4654 12.9291C59.4406 12.7359 59.3214 12.5279 59.1874 12.5279H59.1576C59.0533 12.5279 58.8944 12.5279 58.8895 13.0034C58.8597 14.9793 58.7505 15.6826 57.6184 15.7866C56.9183 15.8509 55.3494 15.8361 54.7684 15.7866C53.7655 15.7024 53.6811 15.0239 53.6811 14.395V8.91274C53.6811 8.70474 53.5123 8.53141 53.2988 8.53141H52.7973Z" fill="#8A8D8F"/>
<path d="M64.0081 12.9834C63.1144 11.7255 61.5504 9.68515 60.1354 8.54612C59.9467 8.39259 59.7183 8.30841 59.5296 8.46193C59.4005 8.68478 59.3906 8.81849 59.5346 9.04135C60.4631 10.4329 61.5852 12.4337 62.3399 13.959C62.4789 14.2413 62.8364 14.3354 63.0945 14.1571L63.8691 13.7064C64.1124 13.548 64.1769 13.2211 64.0081 12.9834Z" fill="#8A8D8F"/>
<path d="M62.8116 14.4395C62.752 14.4395 62.6924 14.4296 62.6328 14.4147C62.4342 14.3652 62.2704 14.2265 62.176 14.0433C61.4909 12.6616 60.3588 10.6163 59.3807 9.14544C59.1771 8.8384 59.2218 8.62049 59.3658 8.37288L59.4105 8.32335C59.6439 8.13021 59.9467 8.16488 60.2496 8.40754C61.7192 9.59115 63.3279 11.7157 64.1571 12.8795C64.2663 13.033 64.311 13.2212 64.2763 13.4094C64.2415 13.5976 64.1372 13.761 63.9784 13.8699L63.1939 14.3256C63.0846 14.3998 62.9506 14.4395 62.8116 14.4395ZM59.6736 8.59078C59.5942 8.73935 59.5992 8.79878 59.6935 8.94239C60.6815 10.4231 61.8186 12.4932 62.5137 13.8799C62.5584 13.969 62.6378 14.0284 62.7272 14.0532C62.8215 14.0779 62.9158 14.0631 62.9953 14.0086L63.7798 13.553C63.8443 13.5084 63.894 13.4292 63.9089 13.345C63.9237 13.2559 63.9039 13.1717 63.8542 13.0974C63.035 11.9485 61.4511 9.84867 60.0162 8.69478C59.8722 8.57592 59.758 8.54126 59.6736 8.59078Z" fill="#8A8D8F"/>
<path d="M56.5413 6.73335C57.3392 6.73335 57.9861 6.08814 57.9861 5.29223C57.9861 4.49632 57.3392 3.8511 56.5413 3.8511C55.7433 3.8511 55.0964 4.49632 55.0964 5.29223C55.0964 6.08814 55.7433 6.73335 56.5413 6.73335Z" fill="#8A8D8F"/>
<path d="M56.5408 6.91666C55.6421 6.91666 54.9122 6.18867 54.9122 5.2923C54.9122 4.39593 55.6421 3.66794 56.5408 3.66794C57.4395 3.66794 58.1693 4.39593 58.1693 5.2923C58.1693 6.18867 57.4345 6.91666 56.5408 6.91666ZM56.5408 4.03936C55.8457 4.03936 55.2846 4.60393 55.2846 5.2923C55.2846 5.98562 55.8506 6.54523 56.5408 6.54523C57.2309 6.54523 57.797 5.98067 57.797 5.2923C57.797 4.59897 57.2309 4.03936 56.5408 4.03936Z" fill="#8A8D8F"/>
<defs>
<linearGradient id="paint0_linear_194_1138" x1="2.29777" y1="15.9903" x2="12.7535" y2="2.0531" gradientUnits="userSpaceOnUse">
<stop stop-color="#3A5DAE"/>
<stop offset="1" stop-color="#00AEC7"/>
</linearGradient>
<linearGradient id="paint1_linear_194_1138" x1="11.6796" y1="32.6738" x2="30.2749" y2="7.88673" gradientUnits="userSpaceOnUse">
<stop stop-color="#3A5DAE"/>
<stop offset="1" stop-color="#00AEC7"/>
</linearGradient>
<linearGradient id="paint2_linear_194_1138" x1="26.3626" y1="26.3664" x2="38.0279" y2="10.8168" gradientUnits="userSpaceOnUse">
<stop stop-color="#3A5DAE"/>
<stop offset="1" stop-color="#00AEC7"/>
</linearGradient>
<linearGradient id="paint3_linear_194_1138" x1="8.41352" y1="15.616" x2="20.0788" y2="0.0664828" gradientUnits="userSpaceOnUse">
<stop stop-color="#3A5DAE"/>
<stop offset="1" stop-color="#00AEC7"/>
</linearGradient>
<linearGradient id="paint4_linear_194_1138" x1="23.6819" y1="24.0241" x2="33.3015" y2="11.2014" gradientUnits="userSpaceOnUse">
<stop stop-color="#3A5DAE"/>
<stop offset="1" stop-color="#00AEC7"/>
</linearGradient>
<linearGradient id="paint5_linear_194_1138" x1="-3.14096" y1="18.165" x2="9.77971" y2="0.942131" gradientUnits="userSpaceOnUse">
<stop stop-color="#3A5DAE"/>
<stop offset="1" stop-color="#00AEC7"/>
</linearGradient>
<linearGradient id="paint6_linear_194_1138" x1="15.1289" y1="24.4304" x2="25.9701" y2="9.97935" gradientUnits="userSpaceOnUse">
<stop stop-color="#3A5DAE"/>
<stop offset="1" stop-color="#00AEC7"/>
</linearGradient>
<linearGradient id="paint7_linear_194_1138" x1="3.25707" y1="22.1062" x2="21.6158" y2="-2.36563" gradientUnits="userSpaceOnUse">
<stop stop-color="#3A5DAE"/>
<stop offset="1" stop-color="#00AEC7"/>
</linearGradient>
<linearGradient id="paint8_linear_194_1138" x1="9.19191" y1="24.8254" x2="24.71" y2="4.14023" gradientUnits="userSpaceOnUse">
<stop stop-color="#3A5DAE"/>
<stop offset="1" stop-color="#00AEC7"/>
</linearGradient>
</defs>
</svg>
