<svg width="24" height="24" viewBox="0 0 24 24" fill="none" xmlns="http://www.w3.org/2000/svg">
<path fill-rule="evenodd" clip-rule="evenodd" d="M20.501 4.46532C21.4316 4.71588 22.1654 5.44965 22.4159 6.38029C22.8813 8.0805 22.8634 11.6241 22.8634 11.6241C22.8634 11.6241 22.8634 15.1498 22.4159 16.85C22.1654 17.7806 21.4316 18.5144 20.501 18.765C18.8008 19.2124 11.9999 19.2124 11.9999 19.2124C11.9999 19.2124 5.21698 19.2124 3.49887 18.7471C2.56823 18.4965 1.83446 17.7627 1.5839 16.8321C1.13647 15.1498 1.13647 11.6062 1.13647 11.6062C1.13647 11.6062 1.13647 8.0805 1.5839 6.38029C1.83446 5.44965 2.58613 4.69798 3.49887 4.44742C5.19908 4 11.9999 4 11.9999 4C11.9999 4 18.8008 4 20.501 4.46532ZM9.83461 14.8629V8.34846L15.49 11.6057L9.83461 14.8629Z" fill="white"/>
</svg>
