<svg width="25" height="24" viewBox="0 0 25 24" fill="none" xmlns="http://www.w3.org/2000/svg">
<path fill-rule="evenodd" clip-rule="evenodd" d="M17.7356 21H7.2356C5.16485 21 3.4856 19.3207 3.4856 17.25V6.75C3.4856 4.67925 5.16485 3 7.2356 3H17.7356C19.8071 3 21.4856 4.67925 21.4856 6.75V17.25C21.4856 19.3207 19.8071 21 17.7356 21ZM18.4856 11.619C18.4856 8.934 15.7938 6.75 12.4856 6.75C9.17735 6.75 6.4856 8.934 6.4856 11.619C6.4856 14.0258 8.6201 16.0417 11.5038 16.4227C11.6988 16.4647 11.9651 16.5518 12.0318 16.719C12.0926 16.8705 12.0716 17.1082 12.0513 17.2612L11.9658 17.775C11.9396 17.9265 11.8451 18.3683 12.4856 18.0983C13.1261 17.8282 15.9408 16.0635 17.2001 14.6145H17.1993C18.0693 13.6613 18.4856 12.6937 18.4856 11.619ZM10.2521 13.1693H8.5706L8.4896 13.137V13.1363L8.48885 13.1355L8.4866 13.1332L8.4536 13.053V10.4385C8.4536 10.374 8.5061 10.3215 8.5706 10.3215H8.9921C9.05585 10.3215 9.10835 10.374 9.10835 10.4385V12.5145H10.2521C10.3166 12.5145 10.3683 12.567 10.3683 12.6315V13.0522C10.3683 13.1167 10.3166 13.1693 10.2521 13.1693ZM16.4876 13.1693H14.8061L14.7251 13.137L14.7221 13.1332L14.6891 13.053V10.4385L14.7221 10.3582L14.7251 10.3545L14.8061 10.3215H16.4876C16.5521 10.3215 16.6038 10.374 16.6038 10.4385V10.8593C16.6038 10.9237 16.5521 10.9763 16.4876 10.9763H15.3438V11.418H16.4876C16.5521 11.418 16.6038 11.4705 16.6038 11.535V11.9557C16.6038 12.0203 16.5521 12.0728 16.4876 12.0728H15.3438V12.5145H16.4876C16.5521 12.5145 16.6038 12.567 16.6038 12.6315V13.0522C16.6038 13.1167 16.5521 13.1693 16.4876 13.1693ZM11.2668 13.1693H10.8453C10.7808 13.1693 10.7283 13.1175 10.7283 13.053V10.4385C10.7283 10.374 10.7808 10.3215 10.8453 10.3215H11.2668C11.3313 10.3215 11.3831 10.374 11.3831 10.4385V13.053C11.3831 13.1167 11.3313 13.1693 11.2668 13.1693ZM12.3303 13.1693H11.9096C11.8451 13.1693 11.7926 13.1175 11.7926 13.053V10.4385C11.7926 10.374 11.8451 10.3215 11.9096 10.3215H12.3303L12.3401 10.3222L12.3513 10.3238L12.3581 10.3253L12.3693 10.3282L12.3731 10.3298L12.3836 10.3343L12.3933 10.3403L12.3993 10.344L12.4083 10.3515L12.4106 10.3538L12.4181 10.362L12.4278 10.3733L13.6256 11.9918V10.4385C13.6256 10.374 13.6781 10.3215 13.7426 10.3215H14.1633C14.2278 10.3215 14.2803 10.374 14.2803 10.4385V13.053C14.2803 13.1167 14.2278 13.1693 14.1633 13.1693H13.7426L13.7126 13.1655L13.7111 13.1648L13.6991 13.161L13.6938 13.1588L13.6848 13.1542L13.6773 13.1497L13.6766 13.149L13.6466 13.1198L12.4473 11.4998V13.053C12.4473 13.1167 12.3948 13.1693 12.3303 13.1693Z" fill="white"/>
</svg>
