<svg width="25" height="24" viewBox="0 0 25 24" fill="none" xmlns="http://www.w3.org/2000/svg">
<path d="M8.97144 3C6.21044 3 3.97144 5.239 3.97144 8V16C3.97144 18.761 6.21044 21 8.97144 21H16.9714C19.7324 21 21.9714 18.761 21.9714 16V8C21.9714 5.239 19.7324 3 16.9714 3H8.97144ZM18.9714 5C19.5234 5 19.9714 5.448 19.9714 6C19.9714 6.552 19.5234 7 18.9714 7C18.4194 7 17.9714 6.552 17.9714 6C17.9714 5.448 18.4194 5 18.9714 5ZM12.9714 7C15.7324 7 17.9714 9.239 17.9714 12C17.9714 14.761 15.7324 17 12.9714 17C10.2104 17 7.97144 14.761 7.97144 12C7.97144 9.239 10.2104 7 12.9714 7ZM12.9714 9C12.1758 9 11.4127 9.31607 10.8501 9.87868C10.2875 10.4413 9.97144 11.2044 9.97144 12C9.97144 12.7956 10.2875 13.5587 10.8501 14.1213C11.4127 14.6839 12.1758 15 12.9714 15C13.7671 15 14.5301 14.6839 15.0928 14.1213C15.6554 13.5587 15.9714 12.7956 15.9714 12C15.9714 11.2044 15.6554 10.4413 15.0928 9.87868C14.5301 9.31607 13.7671 9 12.9714 9Z" fill="white"/>
</svg>
